<?xml version="1.0" standalone="no"?>
<!DOCTYPE svg PUBLIC "-//W3C//DTD SVG 1.1//EN" "http://www.w3.org/Graphics/SVG/1.1/DTD/svg11.dtd" >
<svg xmlns="http://www.w3.org/2000/svg">
<metadata>Generated by IcoMoon</metadata>
<defs>
<font id="icomoon" horiz-adv-x="1024">
<font-face units-per-em="1024" ascent="960" descent="-64" />
<missing-glyph horiz-adv-x="1024" />
<glyph unicode="&#x20;" horiz-adv-x="512" d="" />
<glyph unicode="&#xe98b;" glyph-name="statemenrDefinitions" d="M432.356 960h-394.43c-20.859 0-37.926-17.067-37.926-37.926v-394.43c0-20.859 17.067-37.926 37.926-37.926h394.43c20.859 0 37.926 17.067 37.926 37.926v394.43c0 20.859-17.067 37.926-37.926 37.926zM394.43 565.57h-318.578v318.578h318.578v-318.578zM986.074 960h-394.43c-20.859 0-37.926-17.067-37.926-37.926v-394.43c0-20.859 17.067-37.926 37.926-37.926h394.43c20.859 0 37.926 17.067 37.926 37.926v394.43c0 20.859-17.067 37.926-37.926 37.926zM948.148 565.57h-318.578v318.578h318.578v-318.578zM432.356 406.281h-394.43c-20.859 0-37.926-17.067-37.926-37.926v-394.43c0-20.859 17.067-37.926 37.926-37.926h394.43c20.859 0 37.926 17.067 37.926 37.926v394.43c0 20.859-17.067 37.926-37.926 37.926zM394.43 11.852h-318.578v318.578h318.578v-318.578zM986.074 406.281h-394.43c-20.859 0-37.926-17.067-37.926-37.926v-394.43c0-20.859 17.067-37.926 37.926-37.926h394.43c20.859 0 37.926 17.067 37.926 37.926v394.43c0 20.859-17.067 37.926-37.926 37.926zM948.148 11.852h-318.578v318.578h318.578v-318.578z" />
<glyph unicode="&#xe98c;" glyph-name="TransactionMixWidget" d="M697.060 848.942c-19.206 6.102-39.092-8.254-39.092-28.588v-177.168c-0.070-11.2 6.17-21.508 15.736-26.64 77.94-42.784 126.35-124.518 126.35-213.358 0-134.126-109.118-243.242-243.242-243.242-88.838 0-170.574 48.41-213.358 126.35-5.040 9.338-15.15 15.736-26.592 15.736h-177.216c-19.96 0-34.818-19.542-28.58-39.116 58.824-187.15 234.198-326.916 445.746-326.916 258.206 0 467.188 208.946 467.188 467.188 0 211.31-139.528 386.856-326.94 445.754zM526.812-2.902c-154.974 11.178-285.072 108.944-344.010 244.934h117.134c49.974-79.592 133.854-131.362 226.876-140.588v-104.346zM717.968 660.062v117.136c135.904-58.9 233.748-188.942 244.936-344.010h-104.346c-9.228 93.020-60.998 176.9-140.59 226.874zM586.812-2.892v104.32c143.308 14.14 257.62 128.452 271.76 271.76h104.32c-14.684-200.66-175.42-361.396-376.080-376.080zM556.812 960c-307.732 0-556.812-249.038-556.812-556.812 0-16.568 13.432-30 30-30h526.812c16.568 0 30 13.432 30 30v526.812c0 16.568-13.432 30-30 30zM526.812 433.188h-465.928c14.82 250.416 215.214 451.090 465.928 465.928v-465.928z" />
<glyph unicode="&#xe98d;" glyph-name="AvailableBalanceWidget" d="M941.708 914.602c-41.706 17.022-96.292 26.398-153.708 26.398s-112.002-9.376-153.708-26.398c-63.792-26.038-79.224-62.176-81.834-85.602h-0.458v-323.56c-13.092 1.020-26.462 1.56-40 1.56s-26.908-0.54-40-1.56v163.56h-0.458c-2.61 23.426-18.042 59.564-81.832 85.602-41.708 17.022-96.294 26.398-153.71 26.398s-112.002-9.376-153.708-26.398c-71.6-29.224-82.292-71.188-82.292-93.602v-472c0-22.414 10.69-64.378 82.292-93.602 41.706-17.024 96.292-26.398 153.708-26.398 13.59 0 26.988 0.54 40.138 1.566 1.44-23.186 15.038-61.774 82.152-89.168 41.708-17.024 96.294-26.398 153.71-26.398s112.002 9.376 153.708 26.398c71.6 29.224 82.292 71.188 82.292 93.602v1.556c13.106-1.018 26.458-1.556 40-1.556 57.416 0 112.002 9.376 153.708 26.398 71.602 29.224 82.292 71.188 82.292 93.602v626c0 22.414-10.692 64.378-82.292 93.602zM788 861c92.468 0 145.808-27.092 155.194-40-9.386-12.908-62.726-40-155.194-40s-145.808 27.092-155.194 40c9.386 12.908 62.726 40 155.194 40zM511.994 427c92.428 0 145.766-27.068 155.186-39.982-0.074-0.104-0.14-0.204-0.222-0.31-0.15-0.196-0.314-0.396-0.484-0.598-0.194-0.232-0.4-0.466-0.62-0.706-0.192-0.208-0.394-0.42-0.606-0.634-0.244-0.246-0.502-0.496-0.77-0.75-0.232-0.218-0.472-0.44-0.724-0.664-0.292-0.26-0.604-0.524-0.924-0.79-0.274-0.228-0.548-0.456-0.84-0.688-0.344-0.274-0.71-0.55-1.080-0.83-0.312-0.234-0.622-0.468-0.952-0.708-0.396-0.286-0.818-0.576-1.242-0.868-0.348-0.238-0.69-0.476-1.056-0.718-0.454-0.3-0.936-0.604-1.416-0.906-0.38-0.24-0.752-0.478-1.15-0.722-0.512-0.312-1.056-0.628-1.598-0.944-0.41-0.24-0.808-0.478-1.236-0.718-0.578-0.326-1.192-0.656-1.802-0.986-0.432-0.234-0.848-0.466-1.294-0.7-0.672-0.352-1.382-0.706-2.088-1.062-0.426-0.214-0.832-0.426-1.27-0.64-0.882-0.432-1.81-0.864-2.742-1.298-0.296-0.138-0.572-0.274-0.872-0.412-1.254-0.572-2.552-1.144-3.896-1.716-0.256-0.11-0.534-0.218-0.792-0.326-1.094-0.46-2.202-0.918-3.354-1.376-0.496-0.196-1.022-0.392-1.53-0.588-0.946-0.366-1.888-0.732-2.87-1.096-0.604-0.224-1.24-0.444-1.858-0.666-0.928-0.334-1.852-0.668-2.812-0.996-0.668-0.23-1.364-0.456-2.048-0.684-0.948-0.316-1.894-0.632-2.872-0.944-0.728-0.232-1.482-0.46-2.224-0.69-0.974-0.3-1.948-0.602-2.95-0.898-0.784-0.232-1.59-0.458-2.39-0.686-1.006-0.286-2.012-0.572-3.044-0.852-0.834-0.226-1.688-0.448-2.538-0.672-1.040-0.272-2.084-0.544-3.15-0.81-0.88-0.22-1.776-0.434-2.674-0.65-1.080-0.258-2.168-0.516-3.274-0.768-0.924-0.21-1.86-0.416-2.802-0.622-1.12-0.244-2.25-0.484-3.394-0.72-0.968-0.2-1.946-0.396-2.93-0.59-1.162-0.228-2.338-0.452-3.526-0.672-1.006-0.186-2.018-0.37-3.042-0.55-1.21-0.212-2.434-0.418-3.668-0.622-1.044-0.172-2.092-0.342-3.154-0.508-1.256-0.196-2.53-0.382-3.81-0.566-1.078-0.156-2.156-0.312-3.252-0.46-1.312-0.178-2.644-0.344-3.98-0.51-1.108-0.138-2.212-0.276-3.336-0.406-1.364-0.158-2.754-0.302-4.144-0.448-1.136-0.118-2.266-0.24-3.42-0.35-1.428-0.136-2.886-0.258-4.34-0.382-1.152-0.098-2.294-0.2-3.462-0.29-1.516-0.116-3.066-0.214-4.61-0.314-1.146-0.074-2.278-0.156-3.438-0.222-1.64-0.094-3.318-0.166-4.988-0.242-1.104-0.050-2.19-0.11-3.306-0.152-1.868-0.070-3.776-0.116-5.682-0.164-0.956-0.024-1.894-0.060-2.858-0.078-2.886-0.054-5.81-0.084-8.778-0.084s-5.89 0.030-8.778 0.084c-0.966 0.018-1.902 0.054-2.858 0.078-1.904 0.048-3.812 0.094-5.682 0.164-1.116 0.042-2.204 0.102-3.306 0.152-1.67 0.076-3.346 0.148-4.988 0.242-1.16 0.066-2.294 0.148-3.438 0.222-1.544 0.1-3.092 0.198-4.61 0.314-1.168 0.088-2.31 0.192-3.462 0.29-1.454 0.124-2.912 0.246-4.34 0.382-1.154 0.11-2.284 0.232-3.42 0.35-1.39 0.146-2.78 0.29-4.144 0.448-1.124 0.13-2.228 0.268-3.336 0.406-1.336 0.166-2.67 0.334-3.98 0.51-1.096 0.148-2.174 0.304-3.252 0.46-1.28 0.184-2.556 0.372-3.81 0.566-1.062 0.164-2.11 0.336-3.154 0.508-1.234 0.204-2.46 0.41-3.668 0.622-1.024 0.18-2.036 0.364-3.042 0.55-1.188 0.22-2.362 0.444-3.526 0.672-0.986 0.194-1.962 0.39-2.93 0.59-1.144 0.236-2.274 0.476-3.394 0.72-0.942 0.204-1.878 0.412-2.802 0.622-1.106 0.252-2.194 0.508-3.274 0.768-0.898 0.214-1.794 0.43-2.674 0.65-1.066 0.266-2.11 0.538-3.15 0.81-0.85 0.222-1.704 0.444-2.538 0.672-1.032 0.28-2.038 0.566-3.044 0.852-0.8 0.228-1.606 0.454-2.39 0.686-1.002 0.296-1.976 0.596-2.95 0.898-0.744 0.23-1.498 0.458-2.224 0.69-0.978 0.312-1.924 0.628-2.872 0.944-0.684 0.228-1.38 0.454-2.048 0.684-0.96 0.33-1.882 0.664-2.812 0.996-0.618 0.222-1.254 0.442-1.858 0.666-0.982 0.362-1.924 0.73-2.87 1.096-0.506 0.196-1.034 0.39-1.53 0.588-1.152 0.456-2.26 0.916-3.354 1.376-0.26 0.11-0.536 0.218-0.792 0.326-1.342 0.57-2.64 1.144-3.894 1.716-0.3 0.138-0.576 0.274-0.872 0.412-0.934 0.432-1.86 0.866-2.742 1.298-0.438 0.214-0.844 0.426-1.27 0.64-0.706 0.354-1.416 0.708-2.088 1.062-0.446 0.234-0.864 0.466-1.294 0.7-0.608 0.33-1.224 0.66-1.802 0.986-0.426 0.24-0.824 0.478-1.234 0.718-0.54 0.316-1.086 0.632-1.598 0.944-0.398 0.242-0.77 0.482-1.15 0.722-0.48 0.304-0.962 0.608-1.416 0.906-0.366 0.242-0.708 0.48-1.056 0.718-0.424 0.29-0.844 0.582-1.242 0.868-0.33 0.238-0.64 0.472-0.952 0.708-0.37 0.278-0.736 0.556-1.080 0.83-0.292 0.232-0.568 0.46-0.84 0.688-0.318 0.266-0.63 0.53-0.924 0.79-0.252 0.224-0.49 0.444-0.724 0.664-0.27 0.254-0.528 0.504-0.772 0.75-0.212 0.214-0.414 0.426-0.606 0.634-0.22 0.24-0.426 0.474-0.62 0.706-0.17 0.202-0.334 0.402-0.484 0.598-0.080 0.106-0.146 0.206-0.222 0.31 9.42 12.914 62.752 39.982 155.18 39.982zM236 701c92.468 0 145.808-27.092 155.194-40-9.386-12.908-62.726-40-155.194-40s-145.808 27.092-155.194 40c9.386 12.908 62.726 40 155.194 40zM276 150.84c-12.998-1.21-26.36-1.84-40-1.84-95.614 0-149.392 28.968-156 41.266v60.104c0.77-0.324 1.506-0.652 2.292-0.974 41.706-17.022 96.292-26.396 153.708-26.396 13.542 0 26.894 0.538 40 1.556v-73.716zM276 381v-76.16c-12.998-1.21-26.36-1.84-40-1.84-95.79 0-149.554 29.062-156 41.322v66.048c0.77-0.324 1.506-0.652 2.292-0.974 41.706-17.022 96.292-26.396 153.708-26.396 13.554 0 26.94 0.54 40.046 1.562 0.040-1.144 0.112-2.336 0.216-3.562h-0.262zM236 463c-95.79 0-149.554 29.062-156 41.322v64.048c0.77-0.324 1.506-0.652 2.292-0.974 41.706-17.022 96.292-26.396 153.708-26.396s112.002 9.376 153.708 26.398c0.784 0.32 1.522 0.65 2.292 0.974v-64.050c-6.446-12.26-60.21-41.322-156-41.322zM668 76.268c-6.608-12.3-60.386-41.268-156-41.268s-149.392 28.968-156 41.268v64.104c0.77-0.324 1.506-0.652 2.292-0.974 41.706-17.024 96.292-26.398 153.708-26.398s112.002 9.376 153.708 26.398c0.784 0.32 1.522 0.65 2.292 0.974v-64.104zM668 234.322c-6.446-12.26-60.21-41.322-156-41.322s-149.554 29.062-156 41.322v60.048c0.77-0.324 1.506-0.652 2.292-0.974 41.706-17.022 96.292-26.396 153.708-26.396s112.002 9.376 153.708 26.398c0.784 0.32 1.522 0.65 2.292 0.974v-60.050zM944 196.268c-6.608-12.3-60.386-41.268-156-41.268-13.64 0-27.002 0.632-40 1.84v73.694c13.118-1.020 26.48-1.534 40-1.534 57.416 0 112.002 9.376 153.708 26.398 0.784 0.32 1.522 0.65 2.292 0.974v-60.104zM944 350.322c-6.446-12.26-60.21-41.322-156-41.322-13.612 0-26.984 0.624-40 1.834v70.166h-0.262c0.102 1.226 0.176 2.418 0.216 3.562 13.106-1.022 26.492-1.562 40.046-1.562 57.416 0 112.002 9.376 153.708 26.398 0.784 0.32 1.522 0.65 2.292 0.974v-60.050zM944 504.322c-6.446-12.26-60.21-41.322-156-41.322s-149.554 29.062-156 41.322v66.050c0.77-0.324 1.506-0.652 2.292-0.974 41.706-17.024 96.292-26.398 153.708-26.398s112.002 9.376 153.708 26.398c0.784 0.32 1.522 0.65 2.292 0.974v-66.050zM944 664.322c-6.446-12.26-60.21-41.322-156-41.322s-149.554 29.062-156 41.322v64.050c0.77-0.324 1.506-0.652 2.292-0.974 41.706-17.024 96.292-26.398 153.708-26.398s112.002 9.376 153.708 26.398c0.784 0.32 1.522 0.65 2.292 0.974v-64.050z" />
<glyph unicode="&#xe98e;" glyph-name="videoWidget" d="M1006.664 698.55c-10.781 6.666-24.246 7.275-35.584 1.609l-239.653-119.843v87.114c0 60.594-49.121 109.714-109.714 109.714h-511.999c-60.594 0-109.714-49.121-109.714-109.714v-438.857c0-60.594 49.121-109.714 109.714-109.714h511.999c60.594 0 109.714 49.121 109.714 109.714v87.114l239.653-120.028c18.069-9.028 40.033-1.701 49.063 16.367 2.567 5.136 3.889 10.806 3.857 16.547v438.857c0.006 12.677-6.553 24.452-17.336 31.121zM658.285 228.573c0-20.199-16.374-36.572-36.572-36.572h-511.999c-20.199 0-36.572 16.374-36.572 36.572v438.857c0 20.199 16.374 36.572 36.572 36.572h511.999c20.199 0 36.572-16.374 36.572-36.572v-438.857zM950.856 287.743l-219.428 109.714v101.083l219.428 109.714v-320.511zM365.715 594.285c-80.792 0-146.286-65.494-146.286-146.286s65.494-146.286 146.286-146.286 146.286 65.494 146.286 146.286-65.496 146.286-146.286 146.286zM365.715 374.857c-40.395 0-73.142 32.747-73.142 73.142s32.747 73.142 73.142 73.142 73.142-32.747 73.142-73.142c0-40.395-32.747-73.142-73.142-73.142z" />
<glyph unicode="&#xe98f;" glyph-name="AnalyticsWidget" d="M837.818 412.776h-362.3v362.3c0 20.844-16.894 37.74-37.74 37.74-117.156 0-227.154-45.476-309.968-128.276-82.422-83.87-127.81-193.794-127.81-309.504 0-241.394 196.384-437.778 437.778-437.778 117.156 0 227.154 45.476 309.968 128.276 82.424 83.87 127.812 193.792 127.812 309.502 0 20.846-16.896 37.74-37.74 37.74zM694.144 118.672c-68.322-68.322-159.362-105.934-256.364-105.934-199.78 0-362.3 162.532-362.3 362.3 0 95.796 37.702 186.924 105.934 256.352 59.376 59.376 135.926 95.57 218.626 104.022v-360.376c0-20.844 16.894-37.74 37.74-37.74h360.338c-8.556-81.792-44.774-158.366-103.974-218.624zM895.724 830.93c-83.87 82.424-193.794 127.812-309.502 127.812-20.844 0-37.74-16.894-37.74-37.74v-400.040c0-20.844 16.894-37.74 37.74-37.74h400.040c20.858 0 37.74 16.894 37.74 37.74-0.002 115.71-45.39 225.62-128.278 309.968zM623.974 558.702v322.586c81.794-8.542 158.342-44.734 218.386-103.734 59.402-60.446 95.658-137.058 104.212-218.852h-322.598z" />
<glyph unicode="&#xe990;" glyph-name="machine-template1" d="M964 178v600h-904v-600h-60v-60h1024v60zM120 718h784v-540h-784zM182 238h300v420h-300zM242 598h180v-300h-180zM542 658v-180h300v180zM782 538h-180v60h180zM542 418h300v-60h-300zM542 298h300v-60h-300z" />
<glyph unicode="&#xe991;" glyph-name="rp-cycle1" d="M512 960c-282.599 0-511.37-229.048-511.37-512s228.771-512 511.37-512 511.37 229.048 511.37 512-228.771 512-511.37 512zM512 25.831c-233.256 0-421.656 188.634-421.656 422.179s188.399 422.169 421.656 422.169 421.656-188.634 421.656-422.179-188.399-422.169-421.656-422.169zM682.457 614.174l-237.742-238.030-112.143 112.281c-17.943 17.964-44.857 17.964-62.8 0s-17.943-44.91 0-62.875l143.542-143.724c8.971-8.982 22.429-13.478 31.4-13.478s22.429 4.496 31.4 13.478l269.142 269.473c17.943 17.964 17.943 44.91 0 62.875s-44.857 17.964-62.8 0z" />
<glyph unicode="&#xe992;" glyph-name="rp-alarm1" d="M468.664-64c-88.188 0-160 71.766-160 160 0 17.664 14.336 32 32 32s32-14.336 32-32c0-52.953 43.094-96 96-96s96 43.047 96 96c0 17.664 14.336 32 32 32s32-14.336 32-32c0-88.234-71.805-160-160-160zM820.664 64h-704c-41.172 0-74.664 33.492-74.664 74.664 0 21.852 9.516 42.539 26.109 56.75 1.070 0.938 2.219 1.789 3.414 2.563 62.633 54.656 98.477 133.289 98.477 216.32v119.039c0 164.688 134.016 298.664 298.664 298.664 6.828 0 14.211-0.125 21.039-1.281 17.445-2.898 29.227-19.414 26.32-36.82-2.898-17.406-19.711-29.188-36.82-26.281-3.414 0.555-7.164 0.383-10.539 0.383-129.359 0-234.664-105.258-234.664-234.664v-119.039c0-103.086-45.188-200.625-123.859-267.563-0.641-0.516-1.195-0.984-1.883-1.453-1.148-1.453-2.258-3.672-2.258-6.617 0-5.797 4.867-10.664 10.664-10.664h704c5.805 0 10.672 4.867 10.672 10.664 0 2.992-1.109 5.164-2.305 6.617-0.641 0.469-1.195 0.938-1.836 1.453-78.719 66.984-123.859 164.477-123.859 267.563v46.5c0 17.664 14.336 32 32 32s32-14.336 32-32v-46.5c0-83.078 35.883-161.75 98.602-216.453 1.148-0.766 2.258-1.578 3.281-2.477 16.602-14.164 26.117-34.852 26.117-56.703 0-41.172-33.492-74.664-74.672-74.664zM767.336 533.336c-117.633 0-213.336 95.695-213.336 213.328s95.703 213.336 213.336 213.336c117.633 0 213.328-95.703 213.328-213.336s-95.695-213.328-213.328-213.328zM767.336 896c-82.352 0-149.336-66.984-149.336-149.336 0-82.344 66.984-149.328 149.336-149.328 82.344 0 149.328 66.984 149.328 149.328 0 82.352-66.984 149.336-149.328 149.336z" />
<glyph unicode="&#xe993;" glyph-name="rp-loss1" d="M992 320h-192c-17.664 0-32-14.336-32-32v-320c0-17.664 14.336-32 32-32h192c17.664 0 32 14.336 32 32v320c0 17.664-14.336 32-32 32zM960 0h-128v64h128v-64zM960 128h-128v128h128v-128zM608 640h-192c-17.664 0-32-14.336-32-32v-640c0-17.664 14.336-32 32-32h192c17.664 0 32 14.336 32 32v640c0 17.664-14.336 32-32 32zM576 0h-128v384h128v-384zM576 448h-128v128h128v-128zM224 960h-192c-17.664 0-32-14.336-32-32v-960c0-17.664 14.336-32 32-32h192c17.664 0 32 14.336 32 32v960c0 17.664-14.336 32-32 32zM192 0h-128v704h128v-704zM192 768h-128v128h128v-128z" />
<glyph unicode="&#xe994;" glyph-name="rp-quality1" d="M512-64c-4.781 0-9.593 1.063-14 3.25-202.441 98.565-370.006 204.94-370.006 508.758v352.005c0 13.469 8.406 25.47 21.063 30.063l352.005 128.003c7.062 2.562 14.812 2.562 21.875 0l352.005-128.001c12.657-4.593 21.063-16.594 21.063-30.063v-352.005c0-303.817-167.564-410.193-370.006-508.758-4.405-2.189-9.218-3.252-13.998-3.252zM191.996 777.607v-329.599c0-238.723 107.751-339.005 320.004-444.319 212.254 105.315 320.004 205.596 320.004 444.319v329.599l-320.004 116.346s-320.004-116.346-320.004-116.346zM489.375 320.008l-150.627 150.627 45.25 45.25 105.376-105.376 201.377 201.379 45.25-45.25z" />
<glyph unicode="&#xe995;" glyph-name="rp-yield1" d="M512 960c-282.969 0-512-228.992-512-512 0-282.969 228.992-512 512-512 282.969 0 512 228.992 512 512 0 282.969-228.992 512-512 512zM772 102.937v265.063c0 22.094-17.906 40-40 40s-40-17.906-40-40v-312.93c-43.891-20.133-91.078-32.766-140-37.227v290.156c0 22.094-17.906 40-40 40s-40-17.906-40-40v-290.156c-48.922 4.461-96.109 17.094-140 37.227v252.93c0 22.094-17.906 40-40 40s-40-17.906-40-40v-205.063c-66.328 50.188-118.688 119.336-147.492 201l104.063 104.063h303.43c10.609 0 20.781 4.211 28.289 11.719l151.711 151.711v-63.43c0-22.094 17.906-40 40-40s40 17.906 40 40v160c0 21.977-18 40-40 40h-160c-22.094 0-40-17.906-40-40s17.906-40 40-40h63.43l-140-140h-303.43c-10.609 0-20.781-4.211-28.289-11.719l-80.586-80.586c-2.063 17.227-3.125 34.688-3.125 52.305 0 238.758 193.211 432 432 432 238.758 0 432-193.211 432-432 0-139.172-65.313-264.328-172-345.063z" />
<glyph unicode="&#xe996;" glyph-name="rp-production1" d="M933.178 960c-49.53 0-89.824-40.296-89.824-89.824 0-9.86 1.62-19.344 4.57-28.228l-369.348-365.66c-8.948 2.996-18.51 4.646-28.454 4.646-9.902 0-19.426-1.634-28.34-4.61l-66.090 66.090c2.974 8.916 4.606 18.438 4.606 28.34 0 49.53-40.296 89.824-89.824 89.824-49.53 0-89.824-40.296-89.824-89.824 0-9.902 1.634-19.424 4.606-28.34l-66.090-66.090c-8.914 2.974-18.438 4.61-28.34 4.61-49.53 0-89.824-40.296-89.824-89.824 0-49.53 40.296-89.824 89.824-89.824s89.824 40.296 89.824 89.824c0 17.66-5.144 34.13-13.98 48.034l55.772 55.77c13.902-8.836 30.374-13.978 48.034-13.978s34.13 5.144 48.034 13.978l55.772-55.77c-8.836-13.904-13.98-30.374-13.98-48.034 0-49.53 40.296-89.824 89.824-89.824s89.824 40.296 89.824 89.824c0 17.606-5.112 34.032-13.9 47.908l358.972 355.392c13.928-8.884 30.444-14.058 48.156-14.058 49.53 0 89.824 40.296 89.824 89.824s-40.296 89.824-89.824 89.824zM90.822 361.17c-16.51 0-29.942 13.432-29.942 29.942s13.432 29.942 29.942 29.942 29.942-13.432 29.942-29.942-13.432-29.942-29.942-29.942zM270.472 540.818c-16.51 0-29.942 13.432-29.942 29.942s13.432 29.942 29.942 29.942 29.942-13.432 29.942-29.942-13.432-29.942-29.942-29.942zM450.12 361.17c-16.51 0-29.942 13.432-29.942 29.942s13.432 29.942 29.942 29.942 29.942-13.432 29.942-29.942-13.432-29.942-29.942-29.942zM933.178 840.234c-16.51 0-29.942 13.432-29.942 29.942s13.432 29.942 29.942 29.942 29.942-13.432 29.942-29.942-13.432-29.942-29.942-29.942zM971.968 711.776c-27.798-27.594-504.834-501.12-521.768-517.928-2.24 2.24-156.688 156.69-158.656 158.644-11.588 11.488-30.514 11.63-42.248-0.096l-179.644-179.646c-5.614-5.618-8.77-13.23-8.77-21.172v-185.638c0-16.536 13.406-29.942 29.942-29.942h902.236c16.536 0 29.942 13.406 29.942 29.942v724.586c0 26.56-32.188 39.964-51.034 21.25zM240.53-4.116h-119.766v143.294l119.766 119.766v-263.060zM420.18-4.116h-119.766v263.060l119.766-119.764v-143.296zM601.978-4.116h-121.916v143.232l121.916 120.028v-263.26zM777.642-4.116h-116.18v322.702l116.18 114.334v-437.036zM963.118-4.116h-125.994v496.478l125.994 126.256v-622.734z" />
<glyph unicode="&#xe997;" glyph-name="line-dashboard-config2" d="M902.095 960h-780.19c-60.594 0-109.716-49.121-109.716-109.713v-804.571c0-60.594 49.121-109.713 109.713-109.713h780.19c60.594 0 109.713 49.121 109.713 109.713v804.571c0.005 60.592-49.117 109.713-109.711 109.713zM963.049 45.713c0-33.663-27.288-60.951-60.951-60.951h-780.192c-33.663 0-60.951 27.288-60.951 60.951v804.573c0 33.663 27.288 60.951 60.951 60.951h780.19c33.663 0 60.951-27.288 60.951-60.951v-804.573zM865.525 838.095h-707.049c-13.466 0-24.381-10.915-24.381-24.381v-304.761c0-13.466 10.915-24.381 24.381-24.381h707.047c13.466 0 24.381 10.915 24.381 24.381v304.761c0.002 13.466-10.913 24.381-24.379 24.381zM841.144 533.334h-658.287v255.999h658.287v-255.999zM865.525 411.428h-292.572c-13.466 0-24.381-10.915-24.381-24.381v-304.761c0-13.466 10.915-24.381 24.381-24.381h292.572c13.466 0 24.381 10.915 24.381 24.381v304.761c0 13.466-10.915 24.381-24.381 24.381zM841.144 106.667h-243.81v255.999h243.81v-255.999zM451.047 411.428h-292.572c-13.466 0-24.381-10.915-24.381-24.381v-304.761c0-13.466 10.915-24.381 24.381-24.381h292.572c13.466 0 24.381 10.915 24.381 24.381v304.761c0 13.466-10.915 24.381-24.381 24.381zM426.666 106.667h-243.81v255.999h243.81v-255.999z" />
<glyph unicode="&#xe998;" glyph-name="machine-dashboard2" d="M935.898 883h-847.796c-48.58 0-88.102-39.546-88.102-88.158v-534.3c0-48.61 39.522-88.158 88.102-88.158h318.214l-37.414-99.384h-39.238c-16.568 0-30-13.432-30-30s13.432-30 30-30h364.672c16.568 0 30 13.432 30 30s-13.432 30-30 30h-39.238l-37.414 99.386h318.214c48.58 0 88.102 39.546 88.102 88.158v534.298c0 48.612-39.522 88.158-88.102 88.158zM88.102 823h847.796c15.496 0 28.102-12.63 28.102-28.158v-384.29h-904v384.29c0 15.528 12.606 28.158 28.102 28.158zM590.988 73h-157.976l37.414 99.386h83.148zM935.898 232.386h-847.796c-15.496 0-28.102 12.63-28.102 28.158v90.010h904v-90.010c0-15.528-12.606-28.158-28.102-28.158zM537.584 323.148h-51.168c-16.568 0-30-13.432-30-30s13.432-30 30-30h51.168c16.568 0 30 13.432 30 30s-13.432 30-30 30zM128.878 468h391.67c16.568 0 30 13.432 30 30s-13.432 30-30 30h-21.67v79.75c0 16.568-13.432 30-30 30s-30-13.432-30-30v-79.75h-40v199.75c0 16.568-13.432 30-30 30s-30-13.432-30-30v-199.75h-40v139.75c0 16.568-13.432 30-30 30s-30-13.432-30-30v-139.75h-40v79.75c0 16.568-13.432 30-30 30s-30-13.432-30-30v-79.75h-10c-16.568 0-30-13.432-30-30s13.432-30 30-30zM645.104 697.75h241.874c16.568 0 30 13.432 30 30s-13.432 30-30 30h-241.874c-16.568 0-30-13.432-30-30s13.432-30 30-30zM645.104 585.75h241.874c16.568 0 30 13.432 30 30s-13.432 30-30 30h-241.874c-16.568 0-30-13.432-30-30s13.432-30 30-30zM645.104 468h241.874c16.568 0 30 13.432 30 30s-13.432 30-30 30h-241.874c-16.568 0-30-13.432-30-30s13.432-30 30-30z" />
<glyph unicode="&#xe999;" glyph-name="widget-single-column2" d="M926.673 960h-829.346c-53.665 0-97.327-43.662-97.327-97.329v-829.341c0-53.668 43.662-97.33 97.327-97.33h829.346c53.665 0 97.327 43.662 97.327 97.329v829.343c0 53.666-43.662 97.329-97.327 97.329zM58.893 862.671c0 21.194 17.244 38.435 38.433 38.435h829.346c21.189 0 38.433-17.241 38.433-38.435v-133.348h-906.213v133.348zM201.512-5.107h-104.185c-21.189 0-38.433 17.241-38.433 38.435v637.102h142.619v-675.537zM965.107 33.329c0-21.194-17.244-38.435-38.433-38.435h-666.268v675.537h704.701v-637.102zM360.843 513.079h474.34c16.265 0 29.447 13.183 29.447 29.447s-13.183 29.447-29.447 29.447h-474.34c-16.262 0-29.447-13.183-29.447-29.447s13.185-29.447 29.447-29.447zM360.843 371.69h474.34c16.265 0 29.447 13.185 29.447 29.447 0 16.265-13.183 29.447-29.447 29.447h-474.34c-16.262 0-29.447-13.183-29.447-29.447 0-16.262 13.185-29.447 29.447-29.447zM360.843 230.301h474.34c16.265 0 29.447 13.183 29.447 29.447s-13.183 29.447-29.447 29.447h-474.34c-16.262 0-29.447-13.183-29.447-29.447s13.185-29.447 29.447-29.447zM360.843 88.912h264.538c16.267 0 29.447 13.185 29.447 29.447 0 16.265-13.18 29.447-29.447 29.447h-264.538c-16.262 0-29.447-13.183-29.447-29.447 0-16.262 13.185-29.447 29.447-29.447z" />
<glyph unicode="&#xe99a;" glyph-name="widget-slider2" d="M852.648 728.781c-13.070 45.68-55.172 79.219-104.992 79.219s-91.922-33.539-105-79.219h-642.656v-60h642.664c13.070-45.672 55.172-79.219 104.992-79.219s91.922 33.547 105 79.219h171.344v60zM747.656 649.562c-27.141 0-49.219 22.078-49.219 49.219s22.086 49.219 49.219 49.219c27.141 0 49.219-22.078 49.219-49.219s-22.078-49.219-49.219-49.219zM192.305 557.039c-49.82 0-91.922-33.547-104.992-79.219h-87.313v-60h87.313c13.070-45.68 55.18-79.219 105-79.219s91.922 33.539 104.992 79.219h726.695v60h-726.695c-13.070 45.672-55.18 79.219-105 79.219zM192.305 398.602c-27.133 0-49.211 22.078-49.211 49.219 0 27.133 22.078 49.219 49.211 49.219 27.141 0 49.219-22.086 49.219-49.219 0-27.141-22.078-49.219-49.219-49.219zM528.82 306.070c-49.82 0-91.93-33.539-105-79.219h-423.82v-60h423.82c13.070-45.672 55.18-79.219 105-79.219 49.813 0 91.922 33.547 104.992 79.219h390.188v60h-390.188c-13.070 45.68-55.18 79.219-104.992 79.219zM528.82 147.633c-27.141 0-49.219 22.078-49.219 49.219s22.078 49.219 49.219 49.219c27.133 0 49.219-22.078 49.219-49.219s-22.078-49.219-49.219-49.219z" />
<glyph unicode="&#xe99b;" glyph-name="widget-multi-column2" d="M884.61 944.814h-745.22c-68.498 0-124.203-55.705-124.203-124.203v-745.22c0-68.498 55.705-124.203 124.203-124.203h745.22c68.498 0 124.203 55.705 124.203 124.203v745.22c0 68.498-55.705 124.203-124.203 124.203zM387.797 344.497v227.706h248.407v-227.706zM636.203 261.695v-227.706h-248.407v227.706zM97.989 572.203h207.006v-227.706h-207.006zM719.006 572.203h207.006v-227.706h-207.006zM139.39 862.011h745.22c22.833 0 41.401-18.568 41.401-41.401v-165.605h-828.023v165.605c0 22.833 18.568 41.401 41.401 41.401zM97.989 75.39v186.305h207.006v-227.706h-165.605c-22.833 0-41.401 18.568-41.401 41.401zM884.61 33.989h-165.605v227.706h207.006v-186.305c0-22.833-18.568-41.401-41.401-41.401z" />
<glyph unicode="&#xe99c;" glyph-name="widget-variation-graph2" d="M1014.091 40.53l-96.56 63.933c-10.186 6.744-23.916 3.956-30.665-6.233-6.741-10.189-3.953-23.916 6.233-30.665l35.291-23.364h-820.19v198.733c23.329-0.611 60.286 0.705 99.368 11.183 87.444 23.444 142.532 80.815 159.3 165.905 22.243 112.87 81.128 163.171 129.936 163.171 0.26 0 0.531-0.003 0.797-0.006 51.516-0.578 92.828-54.525 107.808-140.786 9.024-51.926 12.768-98.633 16.075-139.839 5.095-63.508 9.116-113.67 29.91-150.492 23.559-41.719 66.065-61.145 133.753-61.145 12.222 0 22.125 9.903 22.125 22.125s-9.903 22.125-22.125 22.125c-64.67 0-84.426 19.541-95.223 38.654-15.995 28.326-19.677 74.196-24.332 132.269-3.381 42.159-7.213 89.943-16.582 143.878-22.559 129.842-92.745 176.806-150.905 177.458-38.633 0.463-76.868-18.325-107.876-52.826-31.836-35.415-54.923-85.91-66.767-146.031-13.396-67.968-55.844-112.18-126.166-131.402-34.961-9.555-68.773-10.537-89.087-9.947v577.157l23.37-35.285c4.257-6.431 11.293-9.912 18.467-9.912 4.195 0 8.437 1.192 12.195 3.682 10.189 6.747 12.977 20.473 6.23 30.662l-63.956 96.56c-4.098 6.186-11.027 9.909-18.446 9.909s-14.349-3.723-18.446-9.909l-63.941-96.563c-6.747-10.186-3.959-23.916 6.23-30.662 10.186-6.753 23.916-3.959 30.659 6.23l23.376 35.3v-114.903h-28.984c-12.222 0-22.125-9.903-22.125-22.125s9.903-22.125 22.125-22.125h28.984v-132.075h-28.984c-12.222 0-22.125-9.903-22.125-22.125s9.903-22.125 22.125-22.125h28.984v-132.075h-28.984c-12.222 0-22.125-9.903-22.125-22.125s9.903-22.125 22.125-22.125h28.984v-132.072h-28.984c-12.222 0-22.125-9.903-22.125-22.125s9.903-22.125 22.125-22.125h28.984v-132.072h-28.984c-12.222 0-22.125-9.903-22.125-22.125s9.903-22.125 22.125-22.125h28.984v-28.987c0-12.222 9.903-22.125 22.125-22.125 12.219 0 22.125 9.903 22.125 22.125v28.987h132.072v-28.987c0-12.222 9.903-22.125 22.125-22.125s22.125 9.903 22.125 22.125v28.987h132.072v-28.987c0-12.222 9.903-22.125 22.125-22.125s22.125 9.903 22.125 22.125v28.987h132.075v-28.987c0-12.222 9.903-22.125 22.125-22.125s22.125 9.903 22.125 22.125v28.987h132.075v-28.987c0-12.222 9.903-22.125 22.125-22.125s22.125 9.903 22.125 22.125v28.987h114.9l-35.297-23.379c-10.186-6.747-12.974-20.476-6.227-30.665 4.257-6.428 11.293-9.909 18.467-9.909 4.195 0 8.434 1.192 12.198 3.682l96.56 63.956c6.189 4.101 9.903 11.024 9.903 18.449 0.006 7.422-3.717 14.349-9.903 18.446z" />
<glyph unicode="&#xe99d;" glyph-name="widget-line-chart2" d="M280 96c66.168 0 120 53.832 120 120 0 38.258-18.018 72.366-45.992 94.356l76.876 176.026c3.014-0.228 6.046-0.382 9.116-0.382 15.916 0 31.104 3.142 45.016 8.794l103.19-118.226c-9.054-16.864-14.206-36.124-14.206-56.568 0-66.168 53.832-120 120-120s120 53.832 120 120c0 33.25-13.6 63.376-35.52 85.13l110.968 313.784c4.774-0.58 9.624-0.914 14.552-0.914 66.168 0 120 53.832 120 120s-53.832 120-120 120-120-53.832-120-120c0-32.146 12.73-61.356 33.382-82.92l-111.632-315.662c-3.866 0.378-7.784 0.582-11.75 0.582-16.56 0-32.348-3.374-46.712-9.466l-102.378 117.296c9.598 17.242 15.090 37.074 15.090 58.17 0 66.168-53.832 120-120 120s-120-53.832-120-120c0-34.346 14.526-65.344 37.73-87.238l-79.84-182.816c-65.194-1.134-117.89-54.486-117.89-119.946 0-66.168 53.832-120 120-120zM904 878c22.056 0 40-17.944 40-40s-17.944-40-40-40-40 17.944-40 40 17.944 40 40 40zM694 360c22.056 0 40-17.944 40-40s-17.944-40-40-40-40 17.944-40 40 17.944 40 40 40zM440 646c22.056 0 40-17.944 40-40s-17.944-40-40-40-40 17.944-40 40 17.944 40 40 40zM280 256c22.056 0 40-17.944 40-40s-17.944-40-40-40-40 17.944-40 40 17.944 40 40 40zM80 960h-80v-1024h1024v80h-944z" />
<glyph unicode="&#xe99e;" glyph-name="widget-multiline-chart2" d="M990.608 2.782h-923.826v151.57l121.804 104.096c13.58-6.888 28.912-10.796 45.152-10.796 16.62 0 32.294 4.092 46.104 11.284l62.392-49.276c-5.342-12.24-8.324-25.736-8.324-39.92 0-55.236 44.938-100.174 100.174-100.174s100.174 44.938 100.174 100.174c0 14.714-3.214 28.684-8.938 41.278l130.976 114.092c13.522-6.812 28.772-10.674 44.918-10.674 16.62 0 32.294 4.092 46.104 11.284l62.392-49.276c-5.342-12.24-8.324-25.736-8.324-39.92 0-55.236 44.938-100.174 100.174-100.174s100.174 44.938 100.174 100.174-44.938 100.174-100.174 100.174c-16.62 0-32.294-4.092-46.104-11.284l-62.392 49.276c5.342 12.24 8.324 25.736 8.324 39.92 0 55.236-44.938 100.174-100.174 100.174s-100.174-44.938-100.174-100.174c0-14.714 3.214-28.684 8.938-41.278l-130.976-114.092c-13.522 6.812-28.772 10.674-44.918 10.674-16.62 0-32.294-4.092-46.104-11.284l-62.392 49.276c5.342 12.24 8.324 25.736 8.324 39.92 0 55.236-44.938 100.174-100.174 100.174s-100.174-44.938-100.174-100.174c0-14.61 3.17-28.488 8.818-41.016l-75.6-64.61v315.708l125.648 143.912c12.604-5.732 26.584-8.952 41.31-8.952 14.43 0 28.142 3.090 40.548 8.606l70.632-85.48c-7.016-13.68-11.006-29.16-11.006-45.562 0-55.236 44.938-100.174 100.174-100.174s100.174 44.938 100.174 100.174c0 16.062-3.822 31.24-10.57 44.708l136.016 153.548c12.658-5.788 26.706-9.040 41.51-9.040 14.43 0 28.142 3.090 40.548 8.606l70.632-85.48c-7.016-13.68-11.006-29.16-11.006-45.562 0-55.236 44.938-100.174 100.174-100.174s100.174 44.938 100.174 100.174c0 55.236-44.938 100.174-100.174 100.174-14.43 0-28.142-3.090-40.548-8.606l-70.632 85.48c7.016 13.68 11.006 29.158 11.006 45.562 0 55.24-44.938 100.178-100.174 100.178s-100.174-44.938-100.174-100.174c0-16.062 3.822-31.24 10.57-44.708l-136.016-153.548c-12.658 5.788-26.706 9.040-41.51 9.040-14.43 0-28.142-3.090-40.548-8.606l-70.632 85.48c7.016 13.68 11.006 29.158 11.006 45.562 0 55.236-44.938 100.174-100.174 100.174s-100.174-44.938-100.174-100.174c0-16.134 3.858-31.374 10.66-44.89l-77.444-88.702v267.154c0 18.442-14.95 33.392-33.39 33.392s-33.392-14.95-33.392-33.392v-957.218c0-18.44 14.95-33.39 33.392-33.39h957.218c18.44 0 33.392 14.95 33.392 33.392s-14.952 33.39-33.394 33.39zM901.566 269.914c18.412 0 33.392-14.98 33.392-33.392s-14.98-33.392-33.392-33.392-33.392 14.98-33.392 33.392 14.98 33.392 33.392 33.392zM701.218 448c18.412 0 33.392-14.98 33.392-33.392s-14.98-33.392-33.392-33.392-33.392 14.98-33.392 33.392c0 18.412 14.98 33.392 33.392 33.392zM434.086 203.13c18.412 0 33.392-14.98 33.392-33.392s-14.98-33.392-33.392-33.392c-18.412 0-33.392 14.98-33.392 33.392s14.982 33.392 33.392 33.392zM233.74 381.218c18.412 0 33.392-14.98 33.392-33.392s-14.98-33.392-33.392-33.392-33.392 14.98-33.392 33.392c0 18.412 14.98 33.392 33.392 33.392zM901.566 670.608c18.412 0 33.392-14.98 33.392-33.392s-14.98-33.392-33.392-33.392-33.392 14.98-33.392 33.392c0 18.414 14.98 33.392 33.392 33.392zM701.218 893.218c18.412 0 33.392-14.98 33.392-33.392s-14.98-33.392-33.392-33.392-33.392 14.98-33.392 33.392 14.98 33.392 33.392 33.392zM434.086 603.826c18.412 0 33.392-14.98 33.392-33.392s-14.98-33.392-33.392-33.392c-18.412 0-33.392 14.98-33.392 33.392 0.002 18.412 14.982 33.392 33.392 33.392zM233.74 826.434c18.412 0 33.392-14.98 33.392-33.392s-14.98-33.392-33.392-33.392-33.392 14.98-33.392 33.392 14.98 33.392 33.392 33.392z" />
<glyph unicode="&#xe99f;" glyph-name="templates2" d="M987.907 960h-949.184c-13.864 0-24.859-11.234-24.859-24.859v-149.871c0-13.864 11.234-24.859 24.859-24.859h949.184c13.864 0 24.859 11.234 24.859 24.859v149.871c0 13.864-11.234 24.859-24.859 24.859zM962.809 810.607h-899.227v99.436h899.227v-99.436zM987.907 685.117h-224.687c-13.864 0-24.859-11.234-24.859-24.859v-149.871c0-13.864 11.234-24.859 24.859-24.859h224.687c13.864 0 24.859 11.234 24.859 24.859v149.871c0 13.864-11.234 24.859-24.859 24.859zM962.809 535.963h-174.73v99.436h174.73v-99.436zM987.907 410.472h-224.687c-13.864 0-24.859-11.234-24.859-24.859v-149.871c0-13.864 11.234-24.859 24.859-24.859h224.687c13.864 0 24.859 11.234 24.859 24.859v149.871c0 13.864-11.234 24.859-24.859 24.859zM962.809 261.318h-174.73v99.436h174.73v-99.436zM987.907 135.589h-224.687c-13.864 0-24.859-11.234-24.859-24.859v-149.871c0-13.864 11.234-24.859 24.859-24.859h224.687c13.864 0 24.859 11.234 24.859 24.859v149.871c0 13.864-11.234 24.859-24.859 24.859zM962.809-13.565h-174.73v99.436h174.73v-99.436zM625.778 685.117h-587.055c-13.864 0-24.859-11.234-24.859-24.859v-424.515c0-13.864 11.234-24.859 24.859-24.859h586.816c13.864 0 24.859 11.234 24.859 24.859v424.515h0.239c0 13.864-11.234 24.859-24.859 24.859zM600.68 261.318h-537.098v374.080h537.098v-374.080zM415.671 110.491h-379.578c-13.864 0-24.859-11.234-24.859-24.859s11.234-24.859 24.859-24.859h379.578c13.864 0 24.859 11.234 24.859 24.859s-11.234 24.859-24.859 24.859zM615.5-14.043h-579.406c-13.864 0-24.859-11.234-24.859-24.859s11.234-24.859 24.859-24.859h579.406c13.864 0 24.859 11.234 24.859 24.859s-10.995 24.859-24.859 24.859z" />
<glyph unicode="&#xe9a0;" glyph-name="list-eight2" d="M972.922 416.806h-684.745c-28.222 0-51.095 22.874-51.095 51.095s22.874 51.095 51.095 51.095h684.728c28.222 0 51.095-22.874 51.095-51.095s-22.857-51.095-51.078-51.095zM972.922 601.277h-684.745c-28.222 0-51.095 22.874-51.095 51.095s22.874 51.095 51.095 51.095h684.728c28.222 0 51.095-22.874 51.095-51.095 0.017-28.222-22.857-51.095-51.078-51.095zM972.922 785.748h-684.745c-28.222 0-51.095 22.874-51.095 51.095s22.874 51.095 51.095 51.095h684.728c28.222 0 51.095-22.874 51.095-51.095s-22.857-51.095-51.078-51.095zM137.242 832.892c0-37.898-30.723-68.621-68.621-68.621s-68.621 30.723-68.621 68.621c0 37.898 30.723 68.621 68.621 68.621s68.621-30.723 68.621-68.621zM137.242 652.373c0-37.898-30.723-68.621-68.621-68.621s-68.621 30.723-68.621 68.621c0 37.898 30.723 68.621 68.621 68.621s68.621-30.723 68.621-68.621zM137.242 471.853c0-37.898-30.723-68.621-68.621-68.621s-68.621 30.723-68.621 68.621c0 37.898 30.723 68.621 68.621 68.621s68.621-30.723 68.621-68.621zM972.922 222.636h-684.745c-28.222 0-51.095 22.874-51.095 51.095s22.874 51.095 51.095 51.095h684.728c28.222 0 51.095-22.874 51.095-51.095s-22.857-51.095-51.078-51.095zM137.242 277.682c0-37.898-30.723-68.621-68.621-68.621s-68.621 30.723-68.621 68.621c0 37.898 30.723 68.621 68.621 68.621s68.621-30.723 68.621-68.621zM972.922 18.255h-684.745c-28.222 0-51.095 22.874-51.095 51.095s22.874 51.095 51.095 51.095h684.728c28.222 0 51.095-22.874 51.095-51.095s-22.857-51.095-51.078-51.095zM137.242 73.301c0-37.898-30.723-68.621-68.621-68.621s-68.621 30.723-68.621 68.621c0 37.898 30.723 68.621 68.621 68.621s68.621-30.723 68.621-68.621z" />
<glyph unicode="&#xe9a1;" glyph-name="list-four2" d="M972.922 280.552h-684.745c-28.222 0-51.095 22.874-51.095 51.095s22.874 51.095 51.095 51.095h684.728c28.222 0 51.095-22.874 51.095-51.095s-22.857-51.095-51.078-51.095zM972.922 499.087h-684.745c-28.222 0-51.095 22.874-51.095 51.095s22.874 51.095 51.095 51.095h684.728c28.222 0 51.095-22.874 51.095-51.095 0.017-28.222-22.857-51.095-51.078-51.095zM972.922 717.621h-684.745c-28.222 0-51.095 22.874-51.095 51.095s22.874 51.095 51.095 51.095h684.728c28.222 0 51.095-22.874 51.095-51.095s-22.857-51.095-51.078-51.095zM137.242 764.765c0-37.898-30.723-68.621-68.621-68.621s-68.621 30.723-68.621 68.621c0 37.898 30.723 68.621 68.621 68.621s68.621-30.723 68.621-68.621zM137.242 550.182c0-37.898-30.723-68.621-68.621-68.621s-68.621 30.723-68.621 68.621c0 37.898 30.723 68.621 68.621 68.621s68.621-30.723 68.621-68.621zM137.242 335.599c0-37.898-30.723-68.621-68.621-68.621s-68.621 30.723-68.621 68.621c0 37.898 30.723 68.621 68.621 68.621s68.621-30.723 68.621-68.621zM972.922 52.318h-684.745c-28.222 0-51.095 22.874-51.095 51.095s22.874 51.095 51.095 51.095h684.728c28.222 0 51.095-22.874 51.095-51.095s-22.857-51.095-51.078-51.095zM137.242 107.365c0-37.898-30.723-68.621-68.621-68.621s-68.621 30.723-68.621 68.621c0 37.898 30.723 68.621 68.621 68.621s68.621-30.723 68.621-68.621z" />
<glyph unicode="&#xe9a2;" glyph-name="widget-process-control2" d="M968.878 729.352l-128.768-110.372-178.962 238.62c-14.856 19.808-45.484 17.096-56.578-5.102l-179.63-359.26-167.588 167.588c-14.422 14.422-38.342 12.65-50.472-3.776l-140.098-189.71v459.268c0 18.442-14.95 33.392-33.39 33.392s-33.392-14.95-33.392-33.392c0-34.32 0-926.588 0-957.218 0-18.44 14.95-33.39 33.392-33.39h957.218c18.44 0 33.392 14.95 33.392 33.392 0 4.84 0 720.962 0 734.608-0.002 28.472-33.51 43.882-55.124 25.352zM957.218 2.782h-890.436v18.224l170.774 231.258 172.92-172.918c16.088-16.090 43.288-11.702 53.478 8.678l176.186 352.372 167.93-223.908c11.578-15.44 33.814-17.862 48.444-5.318l100.704 86.318v-294.706zM957.218 385.444l-117.106-100.376-178.964 238.618c-14.856 19.808-45.484 17.096-56.578-5.102l-179.63-359.26-167.588 167.588c-6.874 6.874-16.398 10.418-26.104 9.688-9.694-0.726-18.594-5.64-24.37-13.462l-140.096-189.714v221.496l170.774 231.258 172.92-172.918c16.090-16.090 43.288-11.702 53.478 8.678l176.186 352.37 167.93-223.908c11.578-15.44 33.814-17.862 48.444-5.318l100.704 86.318v-245.956z" />
<glyph unicode="&#xe9a3;" glyph-name="widget-value2" d="M994 838h-964c-16.57 0-30-13.43-30-30v-720c0-16.57 13.43-30 30-30h964c16.57 0 30 13.43 30 30v720c0 16.57-13.43 30-30 30zM964 718h-722v60h722zM182 778v-60h-122v60zM60 118v540h904v-540zM512 299.356c-16.57 0-30-2.747-30-6.136v-49.085c0-3.389 13.43-6.136 30-6.136s30 2.747 30 6.136v49.085c0 3.389-13.43 6.136-30 6.136zM332 538c-49.625 0-90-40.375-90-90v-120c0-49.625 40.375-90 90-90s90 40.375 90 90v120c0 49.625-40.375 90-90 90zM362 328c0-16.539-13.461-30-30-30s-30 13.461-30 30v120c0 16.539 13.461 30 30 30s30-13.461 30-30zM689 538c-49.625 0-90-40.375-90-90v-120c0-49.625 40.375-90 90-90s90 40.375 90 90v120c0 49.625-40.375 90-90 90zM719 328c0-16.539-13.461-30-30-30s-30 13.461-30 30v120c0 16.539 13.461 30 30 30s30-13.461 30-30z" />
<glyph unicode="&#xe9a4;" glyph-name="widget-list2" d="M702.701 765.953v22.447c0 25.489-20.686 46.142-46.142 46.142h-75.73c6.308 11.399 9.894 25.521 9.894 39.866-0.032 47.167-38.393 85.592-85.528 85.592s-85.464-38.425-85.464-85.592c0-14.345 3.586-28.467 9.894-39.866h-62.121c-25.489 0-46.142-20.654-46.142-46.142v-22.447h-102.916c-38.649 0-69.966-31.349-69.966-69.998v-689.925c0-38.649 31.317-70.030 69.966-70.030h587.073c38.649 0 69.998 31.349 69.998 70.030v689.925c0 38.649-31.349 69.998-69.998 69.998h-102.819zM454.282 874.376c0 28.114 22.831 51.041 50.881 51.041 28.114 0 50.945-22.927 50.945-51.041 0-16.075-7.493-29.876-19.213-39.866h-63.434c-11.688 10.023-19.181 23.792-19.181 39.866zM805.521 47.657c0-23.76-19.277-43.036-43.036-43.036h-501.001c-23.76 0-43.036 19.277-43.036 43.036v605.261c0 23.792 19.277 43.036 43.036 43.036h59.815c0-18.924 15.338-34.295 34.262-34.295h312.813c18.956 0 34.262 15.338 34.262 34.295h59.847c23.728 0 43.036-19.277 43.036-43.036v-605.261zM408.3 540.589c0-33.583-27.225-60.808-60.808-60.808s-60.808 27.225-60.808 60.808c0 33.583 27.225 60.808 60.808 60.808s60.808-27.225 60.808-60.808zM693.447 574.531h-207.368c-19.085 0-34.583-15.21-34.583-34.295s15.466-34.295 34.583-34.295h207.432c19.085 0 34.519 15.21 34.519 34.295s-15.466 34.295-34.583 34.295zM408.3 368.092c0-33.583-27.225-60.808-60.808-60.808s-60.808 27.225-60.808 60.808c0 33.583 27.225 60.808 60.808 60.808s60.808-27.225 60.808-60.808zM693.447 403.123h-207.368c-19.085 0-34.583-15.946-34.583-35.031s15.466-34.967 34.583-34.967h207.432c19.085 0 34.519 15.882 34.519 34.967s-15.466 35.031-34.583 35.031zM408.268 183.747c0-33.566-27.21-60.776-60.776-60.776s-60.776 27.21-60.776 60.776c0 33.566 27.21 60.776 60.776 60.776s60.776-27.21 60.776-60.776zM693.447 218.874h-207.368c-19.085 0-34.583-15.946-34.583-35.031s15.466-34.967 34.583-34.967h207.432c19.085 0 34.519 15.914 34.519 34.967 0 19.085-15.466 35.031-34.583 35.031z" />
<glyph unicode="&#xe9a5;" glyph-name="line-dashboard2" d="M394.664 618.664h-320c-41.172 0-74.664 33.492-74.664 74.672v192c0 41.172 33.492 74.664 74.664 74.664h320c41.18 0 74.672-33.492 74.672-74.664v-192c0-41.18-33.492-74.672-74.672-74.672zM74.664 896c-5.883 0-10.664-4.781-10.664-10.664v-192c0-5.891 4.781-10.672 10.664-10.672h320c5.891 0 10.672 4.781 10.672 10.672v192c0 5.883-4.781 10.664-10.672 10.664zM394.664-64h-320c-41.172 0-74.664 33.492-74.664 74.664v448c0 41.18 33.492 74.672 74.664 74.672h320c41.18 0 74.672-33.492 74.672-74.672v-448c0-41.172-33.492-74.664-74.672-74.664zM74.664 469.336c-5.883 0-10.664-4.781-10.664-10.672v-448c0-5.883 4.781-10.664 10.664-10.664h320c5.891 0 10.672 4.781 10.672 10.664v448c0 5.891-4.781 10.672-10.672 10.672zM949.336-64h-320c-41.18 0-74.672 33.492-74.672 74.664v192c0 41.18 33.492 74.672 74.672 74.672h320c41.172 0 74.664-33.492 74.664-74.672v-192c0-41.172-33.492-74.664-74.664-74.664zM629.336 213.336c-5.891 0-10.672-4.781-10.672-10.672v-192c0-5.883 4.781-10.664 10.672-10.664h320c5.883 0 10.664 4.781 10.664 10.664v192c0 5.891-4.781 10.672-10.664 10.672zM949.336 362.664h-320c-41.18 0-74.672 33.492-74.672 74.672v448c0 41.172 33.492 74.664 74.672 74.664h320c41.172 0 74.664-33.492 74.664-74.664v-448c0-41.18-33.492-74.672-74.664-74.672zM629.336 896c-5.891 0-10.672-4.781-10.672-10.664v-448c0-5.891 4.781-10.672 10.672-10.672h320c5.883 0 10.664 4.781 10.664 10.672v448c0 5.883-4.781 10.664-10.664 10.664z" />
<glyph unicode="&#xe9a6;" glyph-name="reportGenerations2" d="M302.789 655.893c145.86 0 291.675 0 437.536 0 36.658 0 36.658 56.817 0 56.817-145.86 0-291.675 0-437.536 0-36.636 0-36.636-56.817 0-56.817zM740.37 578.236c-145.86 0-291.698 0-437.558 0-36.636 0-36.636-56.817 0-56.817 145.86 0 291.698 0 437.558 0 36.613 0 36.613 56.817 0 56.817zM740.37 453.625c-145.86 0-291.698 0-437.558 0-36.636 0-36.636-56.817 0-56.817 145.86 0 291.698 0 437.558 0 36.613 0 36.613 56.817 0 56.817zM740.37 319.173c-145.86 0-291.698 0-437.558 0-36.636 0-36.636-56.817 0-56.817 145.86 0 291.698 0 437.558 0 36.613 0 36.613 56.817 0 56.817zM731.893 192.267c-145.86 0-291.675 0-437.536 0-36.636 0-36.636-56.817 0-56.817 145.86 0 291.675 0 437.536 0 36.658 0 36.658 56.817 0 56.817zM759.779 960h-642.077v-1024h788.596v881.935l-146.519 142.065zM838.118 4.203h-652.236v887.617h538.783v-108.179h113.452v-779.437z" />
<glyph unicode="&#xe9a7;" glyph-name="lossCalculations2" d="M580.619 612.908l-137.237-137.237-443.381 443.381v-942.103h1024v192.582l-443.381 443.377zM337.814 491.66l73.897-73.897v-377.474h-73.897v451.371zM274.474 40.288h-73.897v588.61l73.897-73.897v-514.713zM475.052 417.763l73.897 73.897v-451.373h-73.897v377.476zM612.289 491.66l73.897-73.897v-377.476h-73.897v451.373zM749.526 354.425l73.897-73.897v-240.241h-73.897v314.138zM63.34 766.135l73.897-73.897v-651.95h-73.897v725.847zM960.66 40.288h-73.897v176.901l73.897-73.897v-103.004z" />
<glyph unicode="&#xe9a8;" glyph-name="switch-off2" d="M755.842 716.152h-487.681c-147.863 0-268.161-120.29-268.161-268.152s120.298-268.152 268.161-268.152h487.681c147.863 0 268.158 120.29 268.158 268.152s-120.295 268.152-268.158 268.152zM430.105 448c0-79.651-64.805-144.461-144.464-144.461-79.662 0-144.464 64.811-144.464 144.461s64.805 144.461 144.464 144.461c79.659 0 144.464-64.811 144.464-144.461z" />
<glyph unicode="&#xe9a9;" glyph-name="switch-on2" d="M0 448c0-150.017 121.601-271.827 271.827-271.827h480.346c150.017 0 271.827 121.601 271.827 271.827 0 150.017-121.601 271.827-271.827 271.827h-480.346c-150.226 0-271.827-121.81-271.827-271.827zM603.41 448c0 81.485 66.024 147.509 147.509 147.509s147.509-66.024 147.509-147.509-66.024-147.509-147.509-147.509-147.509 66.024-147.509 147.509z" />
<glyph unicode="&#xe9aa;" glyph-name="loss-cost-line2" d="M0 67.321h1024v-63.34h-1024v63.34zM960.66 362.598v-102.698l-380.041 380.039-137.237-137.237-389.318 389.316-44.786-44.788 434.104-434.106 137.237 137.239 335.251-335.249h-102.693v-63.34h210.824v210.824z" />
<glyph unicode="&#xe9ab;" glyph-name="operations2" d="M515.212 443.555l88.875-1.258c12.148 0 23.117 7.367 27.688 18.656l29.117 71.813c4.625 11.422 1.773 24.508-7.195 32.969l-64.359 60.68 63.43 61.656c8.836 8.594 11.492 21.727 6.688 33.070l-30.188 71.367c-4.805 11.352-16.117 18.586-28.398 18.227l-88.422-2.602 1.258 88.445c0.172 12.328-7.234 23.492-18.656 28.125l-71.805 29.109c-11.422 4.625-24.516 1.773-32.977-7.195l-60.68-64.359-61.656 63.43c-8.594 8.836-21.727 11.492-33.070 6.695l-71.367-30.195c-11.344-4.805-18.586-16.078-18.227-28.398l2.602-88.422-88.445 1.258c-12.406 0.172-23.492-7.234-28.117-18.656l-29.117-71.805c-4.625-11.422-1.773-24.516 7.195-32.977l64.359-60.68-63.43-61.656c-8.836-8.594-11.492-21.727-6.695-33.070l30.195-71.367c4.805-11.344 16.102-18.617 28.398-18.227l88.422 2.602-1.258-88.445c-0.172-12.32 7.234-23.492 18.656-28.117l71.813-29.117c3.641-1.469 7.445-2.188 11.219-2.188 8.070 0 15.992 3.273 21.75 9.383l60.688 64.359 61.649-63.43c8.594-8.836 21.727-11.492 33.078-6.688l71.359 30.188c11.352 4.805 18.586 16.086 18.227 28.406zM502.149 503.516c-8.727 0.125-17.086-3.586-22.859-10.141-4.5-5.117-9.398-10.109-14.555-14.844-6.398-5.867-9.922-14.227-9.672-22.898l2.406-81.82-33.711-14.266-57.047 58.695c-6.047 6.227-14.5 9.516-23.164 9.008-6.984-0.406-13.984-0.445-20.797-0.117-8.719 0.43-17.203-2.992-23.195-9.344l-56.203-59.609-33.922 13.75 1.18 82.867c0.125 8.617-3.477 16.867-9.883 22.633-4.813 4.328-9.461 8.961-13.828 13.766-5.867 6.461-14.273 10.023-22.992 9.773l-83.016-2.438-14.258 33.711 60.484 58.797c6.141 5.961 9.422 14.273 9.023 22.828-0.273 5.836-0.281 11.797-0.023 17.727 0.383 8.688-3.023 17.102-9.352 23.063l-61.508 57.992 13.75 33.922 85.477-1.211c8.586-0.133 16.773 3.438 22.539 9.781 3.719 4.094 7.617 8.039 11.57 11.711 6.313 5.867 9.781 14.164 9.531 22.773l-2.516 85.485 33.711 14.266 59.609-61.328c6.008-6.18 14.367-9.469 22.984-9.016 5.383 0.281 10.914 0.328 16.461 0.148 8.57-0.297 16.836 3.133 22.711 9.367l58.641 62.195 33.922-13.75-1.195-84.531c-0.125-8.688 3.539-17 10.039-22.766 4.422-3.93 8.703-8.086 12.711-12.367 5.859-6.242 14.070-9.648 22.672-9.422l84.313 2.484 14.266-33.711-59.555-57.883c-6.258-6.086-9.539-14.602-8.992-23.313 0.406-6.461 0.492-13.023 0.258-19.516-0.32-8.602 3.094-16.93 9.359-22.844l60.297-56.859-13.75-33.914zM377.024 733.883c-29.594 11.992-62.086 11.75-91.485-0.695-29.406-12.438-52.203-35.586-64.203-65.18-11.992-29.586-11.75-62.078 0.695-91.485 19.266-45.547 63.641-72.961 110.242-72.953 15.508 0 31.266 3.031 46.414 9.445 29.406 12.445 52.211 35.586 64.203 65.18 11.992 29.586 11.75 62.078-0.688 91.485-12.445 29.406-35.594 52.203-65.18 64.203zM387.501 600.649c-5.992-14.789-17.398-26.367-32.102-32.586-30.344-12.844-65.484 1.406-78.328 31.75-6.219 14.703-6.344 30.953-0.344 45.742 6 14.797 17.398 26.367 32.102 32.594 14.695 6.219 30.945 6.344 45.742 0.344 14.789-6 26.367-17.398 32.586-32.102s6.344-30.945 0.344-45.742zM1004.947 247.336l-51.961 20.203 22.453 51.031c4.961 11.281 2.492 24.445-6.227 33.164l-39.813 39.813c-8.711 8.711-21.883 11.188-33.164 6.219l-51.024-22.453-20.211 51.961c-4.469 11.484-15.531 19.047-27.852 19.047h-56.313c-12.328 0-23.383-7.563-27.852-19.055l-20.203-51.953-51.031 22.445c-11.273 4.969-24.445 2.492-33.156-6.219l-39.82-39.813c-8.711-8.719-11.188-21.891-6.219-33.172l22.453-51.024-51.961-20.211c-11.484-4.469-19.055-15.523-19.055-27.852v-56.305c0-12.328 7.57-23.391 19.055-27.852l51.961-20.211-22.453-51.024c-4.961-11.281-2.492-24.453 6.227-33.164l39.813-39.82c8.711-8.711 21.883-11.18 33.164-6.219l51.031 22.453 20.211-51.953c4.461-11.492 15.523-19.055 27.844-19.055h56.313c12.328 0 23.383 7.563 27.852 19.055l20.203 51.961 51.031-22.453c11.289-4.969 24.453-2.492 33.164 6.227l39.813 39.813c8.719 8.711 11.188 21.883 6.227 33.164l-22.461 51.031 51.961 20.211c11.484 4.461 19.055 15.523 19.055 27.844v56.313c0 12.32-7.563 23.383-19.055 27.852zM964.236 183.617l-51.031-19.852c-8.141-3.164-14.484-9.727-17.375-17.961-1.469-4.203-3.164-8.367-5.039-12.375-3.656-7.805-3.758-16.805-0.289-24.695l22.008-50.008-10.906-10.906-49.383 21.727c-8 3.516-17.141 3.359-25.008-0.438-4.195-2.023-8.609-3.859-13.133-5.477-8.18-2.906-14.688-9.227-17.828-17.32l-19.539-50.227h-15.422l-19.539 50.227c-3.141 8.086-9.648 14.406-17.82 17.32-4.523 1.609-8.945 3.453-13.148 5.477-7.875 3.789-17.008 3.945-25 0.43l-49.383-21.727-10.906 10.906 22 50.008c3.469 7.891 3.367 16.898-0.281 24.703-1.875 4-3.578 8.164-5.047 12.367-2.891 8.234-9.234 14.797-17.375 17.961l-51.031 19.852v15.422l51.922 20.195c7.977 3.102 14.242 9.477 17.203 17.508 1.383 3.75 2.969 7.516 4.719 11.188 3.734 7.852 3.875 16.93 0.375 24.883l-22.492 51.117 10.906 10.906 51.75-22.766c7.844-3.453 16.789-3.367 24.57 0.227 3.438 1.594 6.945 3.039 10.414 4.297 8.102 2.938 14.531 9.227 17.656 17.258l20.492 52.711h15.43l20.5-52.711c3.125-8.023 9.555-14.313 17.648-17.258 3.477-1.258 6.984-2.703 10.43-4.297 7.781-3.594 16.727-3.672 24.563-0.227l51.75 22.773 10.906-10.914-22.492-51.109c-3.492-7.953-3.359-17.039 0.375-24.883 1.742-3.656 3.328-7.422 4.727-11.203 2.961-8.023 9.227-14.391 17.203-17.492l51.922-20.195zM769.001 285.015c-52.258 0-94.774-42.508-94.774-94.766s42.516-94.774 94.774-94.774c52.25 0 94.766 42.516 94.766 94.774 0 52.25-42.516 94.766-94.766 94.766zM769.001 155.242c-19.305 0-35.008 15.703-35.008 35.008 0 19.297 15.703 35 35.008 35 19.297 0 35-15.703 35-35 0-19.305-15.703-35.008-35-35.008z" />
<glyph unicode="&#xe9ac;" glyph-name="smsgateway2" d="M859.518 890.998h-696.035c-72.773 0-131.982-59.197-131.982-131.982v-425.959c0-72.621 58.951-131.725 131.514-131.982v-193.295l277.787 193.295h418.717c72.773 0 131.982 59.209 131.982 131.982v425.959c0 72.785-59.209 131.982-131.982 131.982zM935.25 333.057c0-41.754-33.973-75.732-75.732-75.732h-436.365l-203.889-141.879v141.879h-55.781c-41.76 0-75.732 33.979-75.732 75.732v425.959c0 41.766 33.973 75.732 75.732 75.732h696.035c41.76 0 75.732-33.967 75.732-75.732zM288.439 692.242h446.121v-56.25h-446.121zM288.439 572.242h446.121v-56.25h-446.121zM288.439 452.242h446.121v-56.25h-446.121z" />
<glyph unicode="&#xe9ad;" glyph-name="roles-line2" d="M808 664c0 163.211-132.789 296-296 296s-296-132.789-296-296c0-101.094 50.961-190.5 128.523-243.93-72.422-24.984-138.797-66.266-194.563-122.031-96.703-96.703-149.961-225.281-149.961-362.039h80c0 238.203 193.797 432 432 432 163.211 0 296 132.789 296 296zM512 448c-119.102 0-216 96.898-216 216s96.898 216 216 216 216-96.898 216-216-96.898-216-216-216zM644 176.039h380v-80h-380zM1024 336v-80h-380v80zM644 16h380v-80h-380z" />
<glyph unicode="&#xe9ae;" glyph-name="downtimereason-line2" d="M1023.984 42.53l-59.995-0.016v175.623h-180.005v-175.669l-60.007-0.016v295.691h-180.003v-295.737l-60.007-0.016v415.76h-180.005v-415.806l-60.007-0.016v535.826h-180.003v-535.872l-63.951-0.016 0.016-59.999 1023.984 0.264-0.016 59.999zM843.983 158.139h60.007v-115.64l-60.007-0.016v115.656zM603.973 278.145h60.005v-235.708l-60.005-0.016v235.724zM363.96 398.151h60.007v-355.774l-60.007-0.016v355.79zM123.95 518.155h60.007v-475.843l-60.007-0.016v475.859zM756.262 458.444l15.32-58.009 145.026 38.303-38.305 145.024-58.011-15.322 12.060-45.651-667.232 390.944-30.332-51.765 667.81-391.286z" />
<glyph unicode="&#xe9af;" glyph-name="production-plan-line2" d="M976.69 900.042h-197.789v29.773c0 16.667-13.518 30.185-30.185 30.185s-30.185-13.518-30.185-30.185v-29.773h-176.347v29.773c0 16.667-13.518 30.185-30.185 30.185s-30.185-13.518-30.185-30.185v-29.773h-168.851v29.773c0 16.667-13.518 30.185-30.185 30.185s-30.185-13.518-30.185-30.185v-29.773h-205.28c-16.667 0-30.185-13.518-30.185-30.185v-682.046c0-16.667 13.518-30.185 30.185-30.185h185.267c29.687-126.849 143.657-221.625 279.42-221.625s249.733 94.782 279.42 221.625h185.267c16.667 0 30.185 13.518 30.185 30.185v682.046c0.005 16.667-13.508 30.185-30.18 30.185zM252.59 839.671v-27.277c0-16.667 13.518-30.185 30.185-30.185s30.185 13.518 30.185 30.185v27.277h168.851v-27.277c0-16.667 13.518-30.185 30.185-30.185s30.185 13.518 30.185 30.185v27.277h176.347v-27.277c0-16.667 13.518-30.185 30.185-30.185s30.185 13.518 30.185 30.185v27.277h167.604v-123.438h-869.009v123.438h175.095zM511.997-3.629c-124.977 0-226.656 101.679-226.656 226.656s101.679 226.656 226.656 226.656 226.656-101.674 226.656-226.656-101.674-226.656-226.656-226.656zM798.898 217.996c0.030 1.68 0.126 3.346 0.126 5.031 0 158.266-128.76 287.027-287.027 287.027s-287.027-128.76-287.027-287.027c0-1.685 0.101-3.351 0.126-5.031h-147.606v437.862h869.009v-437.862h-147.601zM542.183 215.41v146.026c0 16.667-13.518 30.185-30.185 30.185s-30.185-13.518-30.185-30.185v-158.533c0-8.004 3.18-15.681 8.839-21.346l69.376-69.381c5.896-5.891 13.619-8.839 21.346-8.839 7.722 0 15.45 2.948 21.346 8.839 11.787 11.787 11.787 30.9 0 42.687l-60.537 60.547z" />
<glyph unicode="&#xe9b0;" glyph-name="operation-parameter-line2" d="M502.656 566.592c-12.48 12.48-32.768 12.544-45.312 0.064l-105.344-105.408-41.344 41.408c-12.48 12.48-32.768 12.48-45.248 0s-12.48-32.768 0-45.248l64-64c6.208-6.272 14.4-9.408 22.592-9.408s16.384 3.136 22.656 9.344l128 128c12.48 12.48 12.48 32.768 0 45.248zM502.656 310.592c-12.48 12.48-32.768 12.544-45.312 0.064l-105.344-105.408-41.344 41.344c-12.48 12.48-32.768 12.48-45.248 0s-12.48-32.768 0-45.248l64-64c6.208-6.208 14.4-9.344 22.592-9.344s16.384 3.136 22.656 9.344l128 128c12.48 12.48 12.48 32.768 0 45.248zM736 512h-128c-17.664 0-32-14.336-32-32s14.336-32 32-32h128c17.664 0 32 14.336 32 32s-14.336 32-32 32zM736 256h-128c-17.664 0-32-14.336-32-32s14.336-32 32-32h128c17.664 0 32 14.336 32 32s-14.336 32-32 32zM832 832h-128v32c0 17.664-14.336 32-32 32h-69.44c-13.248 37.248-48.832 64-90.56 64s-77.312-26.752-90.56-64h-69.44c-17.664 0-32-14.336-32-32v-32h-128c-35.264 0-64-28.736-64-64v-768c0-35.264 28.736-64 64-64h640c35.264 0 64 28.736 64 64v768c0 35.264-28.736 64-64 64zM384 832h64c17.664 0 32 14.336 32 32s14.336 32 32 32c17.664 0 32-14.336 32-32s14.336-32 32-32h64v-64h-256v64zM832 0h-640v768h128v-32c0-17.664 14.336-32 32-32h320c17.664 0 32 14.336 32 32v32h128v-768z" />
<glyph unicode="&#xe9b1;" glyph-name="shift-line2" d="M615.437 27.319c-8.444-2.104-17.053-3.973-25.598-5.547-22.338-4.154-37.106-25.637-32.974-47.995 2.041-10.999 8.288-20.161 16.769-26.141 8.741-6.152 19.866-8.93 31.202-6.822 10.176 1.889 20.432 4.11 30.495 6.621 22.058 5.49 35.497 27.836 29.994 49.884-5.49 22.067-27.817 35.494-49.888 30zM919.854 579.088c2.884-8.69 8.389-15.785 15.342-20.687 10.31-7.262 23.802-9.705 36.676-5.448 21.585 7.167 33.28 30.443 26.139 52.017-3.253 9.835-6.863 19.701-10.709 29.307-8.444 21.11-32.389 31.387-53.509 22.943-21.099-8.439-31.38-32.391-22.93-53.507 3.231-8.074 6.258-16.362 8.99-24.625zM749.202 86.093c-7.262-4.794-14.757-9.434-22.307-13.782-19.699-11.363-26.445-36.542-15.087-56.232 3.084-5.356 7.191-9.734 11.922-13.080 12.699-8.935 29.945-10.273 44.304-2.001 8.977 5.177 17.902 10.685 26.551 16.403 18.961 12.527 24.18 38.068 11.647 57.038-12.531 18.977-38.061 24.189-57.029 11.653zM1023.608 464.115c-0.896 22.721-20.033 40.405-42.761 39.518-22.699-0.896-40.396-20.040-39.505-42.752 0.341-8.684 0.429-17.497 0.229-26.172-0.319-14.248 6.65-26.949 17.48-34.583 6.452-4.543 14.281-7.293 22.771-7.486 22.721-0.504 41.55 17.517 42.054 40.249 0.227 10.365 0.141 20.867-0.269 31.226zM913.136 194.386c-18.219 13.669-43.995 9.958-57.641-8.228-5.226-6.965-10.729-13.843-16.364-20.467-14.726-17.301-12.646-43.289 4.656-58.026 0.986-0.836 1.983-1.605 3.018-2.327 17.2-12.126 41.105-9.34 55.012 6.98 6.729 7.902 13.289 16.119 19.533 24.438 13.647 18.186 9.954 43.98-8.215 57.63zM973.647 343.194c-21.693 6.802-44.794-5.274-51.592-26.967-2.602-8.288-5.485-16.615-8.598-24.77-6.835-17.953-0.286-37.707 14.726-48.292 2.754-1.935 5.787-3.575 9.082-4.821 21.239-8.105 45.023 2.551 53.119 23.799 3.696 9.696 7.125 19.604 10.227 29.457 6.791 21.697-5.276 44.792-26.965 51.594zM435.836 21.402c-36.804 6.608-72.109 17.861-105.587 33.555-0.396 0.207-0.751 0.442-1.167 0.632-7.889 3.713-15.765 7.691-23.399 11.847-0.026 0.031-0.075 0.051-0.117 0.068-14.006 7.713-27.676 16.247-40.956 25.596-193.644 136.409-240.204 404.929-103.787 598.571 29.663 42.091 65.561 77.207 105.581 105.039 0.493 0.343 0.986 0.685 1.475 1.030 141.025 97.17 332.514 103.719 482.26 3.868l-32.162-46.47c-8.941-12.934-3.44-22.36 12.212-20.951l139.704 12.507c15.673 1.409 25.045 14.966 20.83 30.101l-37.515 135.167c-4.2 15.153-14.953 16.967-23.903 4.035l-32.237-46.58c-109.893 73.769-241.699 101.898-372.523 79.213-13.176-2.28-26.168-5.072-38.981-8.321-0.099-0.018-0.178-0.029-0.258-0.046-0.495-0.121-0.997-0.282-1.479-0.416-112.812-28.97-211.239-94.766-281.472-188.643-0.592-0.702-1.202-1.389-1.761-2.153-2.335-3.146-4.653-6.364-6.923-9.582-3.711-5.274-7.37-10.68-10.87-16.086-0.438-0.652-0.773-1.314-1.156-1.972-57.958-89.811-85.913-193.642-81.119-299.348 0.011-0.348-0.009-0.698 0-1.054 0.464-10.326 1.283-20.795 2.395-31.101 0.059-0.665 0.207-1.294 0.319-1.959 1.149-10.363 2.591-20.751 4.398-31.136 18.367-105.962 68.352-201.311 143.252-275.503 0.174-0.174 0.354-0.363 0.53-0.544 0.062-0.068 0.13-0.103 0.189-0.167 20.123-19.848 42.012-38.206 65.58-54.806 61.678-43.461 130.357-72.188 204.115-85.424 22.38-4.022 43.758 10.876 47.773 33.245 4.013 22.384-10.872 43.78-33.245 47.788zM486.739 776.864c-18.409 0-33.32-14.924-33.32-33.306v-331.825l303.48-156.882c4.884-2.529 10.115-3.72 15.261-3.72 12.054 0 23.696 6.564 29.615 18.017 8.442 16.346 2.054 36.428-14.292 44.869l-267.462 138.275v291.265c-0.002 18.382-14.896 33.306-33.282 33.306z" />
<glyph unicode="&#xe9b2;" glyph-name="users-line2" d="M923.2 362.176l-140.48 30.336v41.216c7.36 10.688 14.208 24.384 21.312 38.656 5.312 10.624 13.312 26.56 16.32 30.080 21.248 20.544 46.72 48.96 55.168 87.040 7.424 36.288-2.24 54.976-7.68 62.080 0 29.632 0 73.728-9.088 107.776-1.216 41.792-9.472 66.432-28.16 85.888-14.592 16.896-35.712 20.544-52.672 23.488-5.248 0.896-13.12 2.24-15.936 3.648-28.544 15.36-56.832 22.848-91.392 23.616-53.76-2.368-107.968-26.304-144.96-64-12.352-12.608-12.224-32.896 0.448-45.248 12.544-12.352 32.768-12.224 45.248 0.448 25.536 26.048 64.64 43.2 99.968 44.8 22.208-0.512 40.832-5.44 59.968-15.744 11.52-6.464 24.448-8.704 35.84-10.688 5.376-0.96 14.464-2.496 16.192-3.392 4.608-4.864 11.008-11.52 11.584-48.192 0.064-2.88 0.512-5.824 1.344-8.576 7.616-25.6 7.616-68.352 7.616-93.888 0-11.968 4.416-20.544 7.36-26.304 2.688-5.312 4.544-8.768 1.728-22.464-4.608-20.736-21.312-39.104-37.376-54.656-10.304-10.24-18.816-27.328-28.736-47.104-5.44-10.944-14.592-29.184-18.688-33.536-6.016-6.016-9.408-14.144-9.408-22.656v-78.080c0-15.040 10.496-28.096 25.28-31.296l165.696-35.84c29.632-6.4 50.304-32.256 50.304-62.784v-44.8h-166.4c-17.664 0-32-14.336-32-32s14.336-32 32-32h198.4c17.664 0 32 14.336 32 32v76.8c0 60.928-41.408 112.448-100.8 125.376zM603.136 233.92l-140.544 30.528v41.472c7.36 10.624 14.208 24.128 21.312 38.272 5.312 10.496 13.312 26.368 16.64 30.144 22.848 22.336 47.168 50.112 54.72 86.784 7.552 36.544-1.984 55.296-7.488 62.656 0 25.728 0 72.64-8.96 107.072-1.024 41.536-9.152 66.24-28.672 87.488-14.656 15.872-35.328 19.328-51.904 22.144-5.376 0.896-13.44 2.24-15.872 3.456-27.968 15.552-56.384 23.168-91.584 24.064-71.040-2.688-158.336-47.936-187.584-129.088-8.32-23.040-8.32-57.472-7.552-96.896l-0.064-15.616c-5.12-10.048-14.656-28.8-7.104-65.28 7.552-36.736 31.872-64.512 54.528-86.656 3.52-3.968 11.648-19.904 17.088-30.464 7.104-14.016 14.016-27.456 21.312-38.080v-41.536l-140.544-30.528c-58.432-12.672-100.864-65.28-100.864-125.056v-76.8c0-17.664 14.336-32 32-32h640c17.664 0 32 14.336 32 32v76.8c0 59.776-42.432 112.384-100.864 125.12zM640 64h-576v44.8c0 29.888 21.248 56.192 50.432 62.528l165.76 35.968c14.72 3.2 25.216 16.192 25.216 31.296v78.528c0 8.192-3.84 16.768-9.472 22.72-4.096 4.352-13.312 22.4-18.816 33.216-10.176 19.776-18.88 36.864-29.248 46.976-16.704 16.32-32.704 34.176-36.736 54.016-3.008 14.528-1.216 18.048 1.472 23.296 2.88 5.696 7.296 14.4 7.296 26.432l-0.256 19.52c-0.448 22.464-1.216 60.16 3.712 73.92 19.456 53.952 81.408 84.992 127.808 86.784 23.040-0.576 41.024-5.376 60.16-16 11.648-6.464 24.704-8.64 36.224-10.624 5.888-1.024 14.272-2.432 15.552-2.432 5.056-5.504 11.328-12.352 11.776-49.088 0-2.88 0.448-5.76 1.28-8.576 7.616-25.92 7.616-71.552 7.616-93.44 0-12.032 4.416-20.672 7.296-26.432 2.688-5.312 4.48-8.768 1.472-23.36-4.032-19.84-20.032-37.632-36.736-54.016-10.432-10.112-19.072-27.2-29.056-46.976-5.44-10.816-14.592-28.864-18.624-33.152-6.144-6.016-9.536-14.208-9.536-22.784v-78.528c0-15.040 10.496-28.096 25.216-31.296l165.76-35.968c29.184-6.336 50.432-32.64 50.432-62.528v-44.8z" />
<glyph unicode="&#xe9b3;" glyph-name="organizationunit-line2" d="M370.445 799.223v-231.92c0-14.208 11.492-25.699 25.699-25.699h90.261v-69.785h-344.746c-14.208 0-25.699-11.492-25.699-25.699v-91.723h-90.261c-14.208 0-25.699-11.492-25.699-25.699v-231.92c0-14.208 11.492-25.699 25.699-25.699h231.92c14.208 0 25.699 11.492 25.699 25.699v231.92c0 14.208-11.492 25.699-25.699 25.699h-90.47v66.233h319.047v-66.233h-90.261c-14.208 0-25.699-11.492-25.699-25.699v-231.92c0-14.208 11.492-25.699 25.699-25.699h231.92c14.208 0 25.699 11.492 25.699 25.699v231.92c0 14.208-11.492 25.699-25.699 25.699h-90.261v66.233h319.047v-66.233h-90.261c-14.208 0-25.699-11.492-25.699-25.699v-231.92c0-14.208 11.492-25.699 25.699-25.699h231.92c14.208 0 25.699 11.492 25.699 25.699v231.92c0 14.208-11.492 25.699-25.699 25.699h-90.261v91.723c0 14.208-11.492 25.699-25.699 25.699h-344.746v69.785h90.261c14.208 0 25.699 11.492 25.699 25.699v231.92c0 14.208-11.492 25.699-25.699 25.699h-231.92c-13.999 0-25.49-11.492-25.49-25.699zM231.92 122.685h-180.522v180.73h180.522v-180.73zM602.156 122.685h-180.73v180.73h180.73v-180.73zM972.393 122.685h-180.522v180.73h180.73v-180.73h-0.209zM421.635 773.733h180.73v-180.73h-180.73v180.73z" />
<glyph unicode="&#xe9b4;" glyph-name="home-line2" d="M1013.11 543.872l-485.392 355.394c-9.36 6.852-22.076 6.852-31.432 0l-485.396-355.394c-11.856-8.682-14.432-25.33-5.75-37.186s25.332-14.428 37.186-5.75l469.674 343.888 469.674-343.886c4.736-3.47 10.24-5.14 15.696-5.14 8.192 0 16.276 3.77 21.488 10.89 8.684 11.854 6.108 28.502-5.748 37.184zM884.492 494.914c-14.692 0-26.606-11.912-26.606-26.606v-423.498h-212.844v231.172c0 73.36-59.684 133.040-133.040 133.040s-133.040-59.684-133.040-133.040v-231.174h-212.846v423.498c0 14.694-11.914 26.606-26.606 26.606s-26.606-11.912-26.606-26.606v-450.106c0-14.694 11.914-26.606 26.606-26.606h266.058c13.992 0 25.442 10.81 26.502 24.534 0.064 0.622 0.104 1.302 0.104 2.072v257.78c0 44.018 35.81 79.828 79.828 79.828s79.828-35.812 79.828-79.828v-257.78c0-0.766 0.040-1.434 0.104-2.048 1.048-13.734 12.502-24.558 26.502-24.558h266.058c14.694 0 26.606 11.912 26.606 26.606v450.106c-0.002 14.696-11.914 26.608-26.608 26.608z" />
<glyph unicode="&#xe9b5;" glyph-name="video-thumbnail2" d="M1017.846 433.846c-11.077 19.692-36.923 27.077-57.845 14.769l-140.306-81.23-35.692-20.923v-194.459l33.23-19.692c1.231 0 1.231-1.231 2.462-1.231l137.844-79.999c6.154-4.923 14.769-7.385 23.384-7.385 23.384 0 41.846 18.461 41.846 41.846v164.921l1.231 162.46c0 7.385-1.231 14.769-6.154 20.923zM198.164 496.615c109.537 0 198.151 88.614 198.151 198.151s-88.614 198.151-198.151 198.151-198.151-88.614-198.151-198.151c-1.231-109.537 88.614-198.151 198.151-198.151zM198.164 775.996c45.538 0 81.23-36.923 81.23-81.23 0-45.538-36.923-81.23-81.23-81.23s-81.23 36.923-81.23 81.23c-1.231 45.538 35.692 81.23 81.23 81.23zM700.312 485.538c-32-16-67.691-25.846-105.845-25.846-46.769 0-91.076 13.538-127.998 38.153h-140.306c-36.923-24.615-81.23-38.153-127.998-38.153-38.153 0-73.845 8.615-105.845 25.846-28.307-16-47.999-47.999-47.999-82.461v-300.304c0-55.384 45.538-99.691 99.691-99.691h505.84c55.384 0 99.691 45.538 99.691 99.691v300.304c-1.231 34.461-20.923 66.461-49.23 82.461zM594.467 496.615c109.537 0 198.151 88.614 198.151 198.151s-88.614 198.151-198.151 198.151c-109.537 0-198.151-88.614-198.151-198.151s88.614-198.151 198.151-198.151zM594.467 775.996c45.538 0 81.23-36.923 81.23-81.23 0-45.538-36.923-81.23-81.23-81.23s-81.23 36.923-81.23 81.23c0 45.538 35.692 81.23 81.23 81.23z" />
<glyph unicode="&#xe9b6;" glyph-name="allowance2" d="M297.516 375.257c28.777 0 56.593 1.859 82.914 5.319v288.507c-26.319 3.458-54.137 5.316-82.914 5.316-164.312 0-297.513-60.412-297.513-134.938v-29.264c0-74.523 133.202-134.941 297.513-134.941zM297.516 224.609c28.777 0 56.593 1.859 82.914 5.314v84.567c-26.327-3.458-54.13-5.342-82.914-5.342-143.426 0-263.137 46.034-291.256 107.301-4.095-8.924-6.257-18.165-6.257-27.637v-29.264c0-74.526 133.202-134.938 297.513-134.938zM380.428 157.264v6.573c-26.327-3.458-54.13-5.342-82.914-5.342-143.426 0-263.137 46.034-291.256 107.301-4.095-8.922-6.257-18.162-6.257-27.635v-29.264c0-74.528 133.202-134.941 297.513-134.941 32.859 0 64.464 2.422 94.019 6.884-7.326 14.985-11.104 30.789-11.104 47.161v29.262zM726.489 902.938c-164.312 0-297.513-60.412-297.513-134.938v-29.264c0-74.526 133.202-134.938 297.513-134.938 164.309 0 297.513 60.412 297.513 134.938v29.264c0 74.526-133.204 134.938-297.513 134.938zM726.489 537.687c-143.426 0-263.137 46.032-291.256 107.301-4.095-8.922-6.257-18.162-6.257-27.637v-29.264c0-74.526 133.202-134.938 297.513-134.938 164.309 0 297.513 60.412 297.513 134.938v29.264c0 9.475-2.162 18.716-6.257 27.637-28.119-61.269-147.83-107.301-291.256-107.301zM726.489 387.034c-143.426 0-263.137 46.034-291.256 107.301-4.095-8.922-6.257-18.162-6.257-27.637v-29.264c0-74.528 133.202-134.941 297.513-134.941 164.309 0 297.513 60.412 297.513 134.941v29.264c0 9.475-2.162 18.716-6.257 27.637-28.119-61.269-147.83-107.301-291.256-107.301zM726.489 228.251c-143.426 0-263.137 46.034-291.256 107.301-4.095-8.924-6.257-18.162-6.257-27.635v-29.267c0-74.526 133.202-134.938 297.513-134.938 164.309 0 297.513 60.412 297.513 134.938v29.267c0 9.473-2.162 18.716-6.257 27.635-28.119-61.264-147.83-107.301-291.256-107.301zM726.489 77.601c-143.426 0-263.137 46.032-291.256 107.298-4.095-8.924-6.257-18.167-6.257-27.635v-29.264c0-74.526 133.202-134.938 297.513-134.938 164.309 0 297.513 60.412 297.513 134.938v29.267c0 9.473-2.162 18.716-6.257 27.635-28.119-61.267-147.83-107.301-291.256-107.301z" />
<glyph unicode="&#xe9b7;" glyph-name="notification2" d="M935.638 96.298l-73.302 122.112c-33.792 56.362-51.67 120.874-51.67 186.624v106.966c0 164.65-134.016 298.666-298.666 298.666s-298.666-134.016-298.666-298.666v-106.966c0-65.75-17.878-130.262-51.67-186.624l-73.302-122.112c-3.968-6.57-4.054-14.806-0.298-21.462 3.798-6.698 10.922-10.838 18.602-10.838h810.666c7.68 0 14.806 4.138 18.602 10.838 3.756 6.658 3.672 14.892-0.296 21.462zM144.342 106.666l53.888 89.814c37.802 62.976 57.77 135.082 57.77 208.554v106.966c0 141.184 114.816 256 256 256s256-114.816 256-256v-106.966c0-73.472 19.968-145.578 57.728-208.554l53.93-89.814h-735.316zM512 960c-47.062 0-85.334-38.272-85.334-85.334v-85.334c0-11.774 9.558-21.332 21.334-21.332s21.334 9.558 21.334 21.334v85.332c0 23.552 19.114 42.666 42.666 42.666s42.666-19.114 42.666-42.666v-85.334c0-11.774 9.558-21.332 21.334-21.332s21.334 9.558 21.334 21.334v85.332c0 47.062-38.272 85.334-85.334 85.334zM604.33 96.128c-6.016 10.154-19.030 13.482-29.226 7.638-10.198-5.974-13.61-19.072-7.638-29.226 5.546-9.43 8.576-20.736 8.576-31.872 0-35.286-28.714-64-64-64s-64 28.714-64 64c0 11.136 3.030 22.442 8.576 31.872 5.93 10.198 2.518 23.254-7.638 29.226-10.282 5.846-23.254 2.518-29.226-7.638-9.43-16.128-14.422-34.602-14.422-53.462 0.002-58.836 47.83-106.666 106.668-106.666s106.666 47.83 106.752 106.666c0 18.86-4.992 37.334-14.422 53.462z" />
<glyph unicode="&#xe9b8;" glyph-name="filter2" d="M390.027 476.121c10.746-11.694 16.646-26.97 16.646-42.773v-465.653c0-28.025 33.818-42.247 53.835-22.545l129.898 148.861c17.383 20.86 26.97 31.185 26.97 51.833v287.398c0 15.803 6.005 31.079 16.646 42.774l372.732 404.443c27.918 30.341 6.427 79.54-34.871 79.54h-919.717c-41.298 0-62.895-49.094-34.871-79.54l372.734-404.338z" />
<glyph unicode="&#xe9b9;" glyph-name="view2" d="M874.613 844.084h-29.942v-735.6c0-48.868-39.779-88.646-88.647-88.646h-544.616v-27.268c0-31.226 25.343-56.568 56.568-56.568h606.53c31.225 0 56.567 25.342 56.567 56.568v794.946c0.001 31.225-25.235 56.568-56.46 56.568zM452.652 51.918h303.265c31.225 0 56.568 25.342 56.568 56.566v794.948c0 31.225-25.343 56.568-56.568 56.568h-404.104v-18.713c0.213-1.925 0.321-3.957 0.321-5.988v-154.947c0-43.95-35.716-79.666-79.666-79.666h-154.947c-1.604 0-3.315 0.107-4.919 0.214h-19.676v-592.415c0-31.224 25.343-56.566 56.568-56.566h303.158zM464.094 244.184h-197.721c-14.757 0-26.734 11.978-26.734 26.734 0 14.758 11.977 26.734 26.734 26.734h197.828c14.757 0 26.734-11.976 26.734-26.734 0-14.756-12.084-26.734-26.84-26.734zM661.921 380.631h-395.549c-14.757 0-26.734 11.978-26.734 26.734 0 14.758 11.977 26.734 26.734 26.734h395.549c14.757 0 26.734-11.976 26.734-26.734 0-14.756-11.977-26.734-26.734-26.734zM266.373 578.994h395.549c14.757 0 26.734-11.977 26.734-26.734s-11.977-26.734-26.734-26.734h-395.549c-14.757 0-26.734 11.977-26.734 26.734s11.977 26.734 26.734 26.734zM117.52 732.765h154.947c0.107 0 0.321 0 0.428 0 25.878 0.214 46.837 21.173 47.051 47.051 0 0.107 0 0.321 0 0.428v155.054c0 14.329-11.763 23.846-23.952 23.846-5.881 0-11.763-2.139-16.682-7.058l-178.688-178.687c-14.971-14.971-4.384-40.635 16.896-40.635z" />
<glyph unicode="&#xe9ba;" glyph-name="update2" d="M887.399 695.97l-127.93 127.905-396.206-396.694 129.356-126.432zM869.595 933.518l-65.559-65.574 127.93-127.905 65.559 65.575c35.263 35.328 35.327 92.577 0 127.905-35.32 35.318-92.61 35.295-127.93-0.002zM233.442 169.407l218.256 92.008-127.121 124.243zM894.604 584.458l-123.387-121.647v-401.839h-651.689v649.020h409.972l114.18 120.605h-643.676v-894.597h894.6z" />
<glyph unicode="&#xe9bb;" glyph-name="delete2" d="M829.691 844.075h-182.446v57.962c0 31.957-26.006 57.962-57.962 57.962h-154.566c-31.957 0-57.962-26.006-57.962-57.962v-57.962h-182.446c-37.888 0-68.724-30.836-68.724-68.724v-85.842h772.83v85.842c0 37.888-30.836 68.724-68.724 68.724zM608.604 844.075h-193.208v57.962c0 10.665 8.675 19.321 19.321 19.321h154.566c10.646 0 19.321-8.656 19.321-19.321v-57.962zM164.226 8.047c0-39.723 32.324-72.047 72.047-72.047h551.434c39.743 0 72.047 32.324 72.047 72.047v642.821h-695.547v-642.821z" />
<glyph unicode="&#xe9bc;" glyph-name="edit2" d="M636.75 787.445l208.305-208.303-527.277-527.277-208.187 208.303 527.159 527.277zM1003.117 837.683l-92.896 92.896c-35.901 35.901-94.197 35.901-130.22 0l-88.985-88.985 208.305-208.305 103.796 103.796c27.845 27.847 27.845 72.753 0 100.598zM0.581-32.618c-3.791-17.061 11.613-32.348 28.676-28.199l232.121 56.28-208.187 208.303-52.61-236.384z" />
<glyph unicode="&#xe9bd;" glyph-name="logout2" d="M646.112 73.561h-526.075v748.857h526.096c11.661 0 21.126 9.464 21.126 21.126v77.796c0 11.661-9.464 21.126-21.126 21.126h-625.007c-11.661 0-21.126-9.464-21.126-21.126v-946.68c0-11.661 9.464-21.126 21.126-21.126h624.986c11.672 0 21.126 9.464 21.126 21.126v77.775c0 11.683-9.443 21.126-21.126 21.126zM1017.789 462.931l-284.375 284.353c-7.922 7.933-21.95 7.922-29.872 0l-67.465-67.476c-8.25-8.25-8.25-21.622 0-29.872l128.445-128.466h-556.042c-11.661 0-21.126-9.464-21.126-21.126v-104.7c0-11.661 9.464-21.126 21.126-21.126h556.074l-128.445-128.466c-8.25-8.25-8.25-21.622 0-29.872l67.465-67.486c3.961-3.961 9.348-6.19 14.936-6.19 5.609 0 10.975 2.229 14.936 6.19l284.375 284.353c3.961 3.961 6.19 9.348 6.19 14.936-0.011 5.619-2.26 10.985-6.222 14.947z" />
<glyph unicode="&#xe9be;" glyph-name="password2" d="M207.143 652.423v-106.919h-7.114c-44.776 0-81.183-36.407-81.183-81.183v-447.137c0-44.776 36.407-81.183 81.183-81.183h623.941c44.776 0 81.183 36.407 81.183 81.183v447.346c0 44.776-36.407 81.183-81.183 81.183h-2.092v106.919c0 169.481-137.886 307.367-307.367 307.367-169.481-0.209-307.367-138.096-307.367-307.577zM560.124 220.979c-6.277-4.603-7.951-8.997-7.951-16.32 0.209-32.85 0.209-65.491 0.209-98.341v0c0.628-13.6-6.277-26.991-18.413-33.059-28.665-14.647-57.331 5.859-57.331 33.059v0.209c0 32.85 0 65.7 0.209 98.55 0 6.696-1.465 11.089-7.323 15.483-29.711 21.97-39.546 59.423-24.69 92.273 14.437 32.013 49.798 50.844 83.067 44.149 37.035-7.532 62.771-37.244 63.189-74.279 0-25.736-10.253-46.66-30.967-61.725zM341.682 652.423c0 95.412 77.626 172.829 172.829 172.829 95.412 0 172.829-77.626 172.829-172.829v-106.919h-345.658v106.919z" />
<glyph unicode="&#xe9bf;" glyph-name="user2" d="M819.439 228.028l-163.038 81.51c-15.377 7.697-24.934 23.159-24.934 40.363v57.702c3.908 4.779 8.021 10.223 12.271 16.23 21.146 29.867 38.093 63.113 50.415 98.97 24.081 11.042 39.714 34.85 39.714 61.73v68.267c0 16.435-6.144 32.358-17.067 44.8v90.778c0.956 9.387 4.71 65.263-35.703 111.36-35.055 39.987-91.938 60.262-169.097 60.262s-134.042-20.275-169.097-60.245c-40.414-46.097-36.659-101.99-35.703-111.377v-90.778c-10.923-12.442-17.067-28.365-17.067-44.8v-68.267c0-20.77 9.438-40.141 25.549-53.060 15.633-61.901 48.35-108.544 59.785-123.511v-56.474c0-16.521-9.011-31.676-23.501-39.595l-152.252-83.046c-49.51-27.017-80.247-78.797-80.247-135.185v-55.262c0-80.998 256.768-102.4 392.533-102.4s392.533 21.402 392.533 102.4v51.934c0 58.675-32.614 111.445-85.094 137.694z" />
<glyph unicode="&#xe9c0;" glyph-name="setting2" d="M1008.014 512.079c-8.242 5.174-72.824 43.862-98.492 55.604l-31.806 76.784c9.45 25.39 27.504 96.616 30.328 108.964 2.614 11.448-0.836 23.436-9.14 31.74l-49.736 49.734c-8.302 8.304-20.294 11.756-31.74 9.14-9.364-2.142-82.452-20.46-108.964-30.328l-76.786 31.806c-11.236 24.56-48.772 87.614-55.604 98.492-6.242 9.946-17.162 15.984-28.906 15.984h-70.34c-11.744 0-22.664-6.038-28.908-15.984-5.174-8.242-43.862-72.824-55.604-98.492l-76.784-31.806c-25.39 9.45-96.616 27.504-108.964 30.328-11.448 2.614-23.436-0.838-31.74-9.14l-49.736-49.736c-8.304-8.304-11.756-20.292-9.14-31.74 2.142-9.364 20.46-82.452 30.328-108.964l-31.806-76.784c-24.56-11.236-87.614-48.772-98.492-55.604-9.946-6.242-15.984-17.162-15.984-28.906v-70.34c0-11.744 6.038-22.664 15.984-28.908 8.242-5.174 72.824-43.862 98.492-55.604l31.806-76.784c-9.45-25.39-27.504-96.616-30.328-108.964-2.614-11.448 0.836-23.436 9.14-31.74l49.736-49.736c8.304-8.304 20.296-11.758 31.74-9.14 9.364 2.142 82.452 20.46 108.964 30.328l76.784-31.806c11.236-24.56 48.772-87.614 55.604-98.492 6.244-9.946 17.164-15.984 28.908-15.984h70.34c11.744 0 22.664 6.038 28.908 15.984 5.174 8.242 43.862 72.824 55.604 98.492l76.784 31.806c25.39-9.45 96.616-27.504 108.964-30.328 11.452-2.62 23.438 0.836 31.74 9.14l49.736 49.736c8.304 8.304 11.756 20.292 9.14 31.74-2.142 9.364-20.46 82.452-30.328 108.964l31.806 76.784c24.56 11.236 87.614 48.772 98.492 55.604 9.946 6.244 15.984 17.164 15.984 28.908v70.34c0 11.744-6.038 22.664-15.984 28.908zM955.736 432.069h-0.004c-24.316-14.448-64.788-37.724-77.478-42.992-11.354-1.87-21.366-9.434-26-20.624l-43.41-104.802c-4.634-11.188-2.904-23.616 3.802-32.968 5.256-12.712 17.41-57.78 24.384-85.184l-22.532-22.532c-27.402 6.974-72.472 19.128-85.184 24.384-9.35 6.708-21.782 8.438-32.968 3.802l-104.802-43.41c-11.188-4.636-18.752-14.646-20.624-26-5.266-12.69-28.544-53.162-42.992-77.478h-31.864c-14.448 24.316-37.724 64.788-42.992 77.478-1.87 11.356-9.434 21.366-20.624 26l-104.804 43.41c-11.188 4.634-23.616 2.904-32.966-3.802-12.706-5.256-57.778-17.408-85.186-24.384l-22.532 22.532c6.974 27.402 19.13 72.472 24.384 85.184 6.706 9.352 8.436 21.78 3.802 32.968l-43.41 104.802c-4.636 11.188-14.646 18.752-26 20.624-12.684 5.266-53.154 28.544-77.472 42.992v31.864c24.316 14.448 64.788 37.724 77.478 42.992 11.356 1.87 21.366 9.434 26 20.624l43.41 104.802c4.632 11.188 2.904 23.616-3.802 32.968-5.256 12.712-17.41 57.78-24.384 85.184l22.532 22.532c27.402-6.974 72.472-19.128 85.184-24.384 9.35-6.706 21.778-8.436 32.968-3.802l104.802 43.41c11.188 4.636 18.752 14.646 20.624 26 5.264 12.686 28.542 53.156 42.99 77.474h31.864c14.448-24.316 37.724-64.788 42.992-77.478 1.87-11.356 9.434-21.366 20.624-26l104.802-43.41c11.188-4.632 23.616-2.906 32.966 3.802 12.706 5.256 57.778 17.408 85.186 24.384l22.532-22.532c-6.974-27.402-19.13-72.472-24.384-85.184-6.706-9.352-8.436-21.78-3.802-32.968l43.41-104.802c4.636-11.188 14.646-18.752 26-20.624 12.69-5.266 53.162-28.544 77.478-42.992v-31.86zM511.999 671.209c-123.078 0-223.21-100.132-223.21-223.21s100.132-223.208 223.21-223.208 223.21 100.132 223.21 223.21-100.132 223.208-223.21 223.208zM511.999 293.057c-85.436 0-154.942 69.506-154.942 154.942s69.506 154.942 154.942 154.942 154.942-69.506 154.942-154.942-69.506-154.942-154.942-154.942z" />
<glyph unicode="&#xe9c1;" glyph-name="home2" d="M1011.172 459.992c18.562 20.415 16.77 51.705-4.002 69.87l-457.639 400.437c-20.772 18.165-54.075 17.785-74.41-0.858l-459.195-420.928c-20.335-18.643-21.333-49.893-2.21-69.77l11.513-11.99c19.1-19.878 49.973-22.248 68.912-5.277l34.318 30.733v-449.932c0-27.605 22.368-49.953 49.953-49.953h178.995c27.585 0 49.953 22.348 49.953 49.953v314.771h228.311v-314.771c-0.397-27.585 19.34-49.933 46.925-49.933h189.69c27.585 0 49.953 22.348 49.953 49.953v443.577c0 0 9.48-8.305 21.173-18.582 11.673-10.258 36.19-2.033 54.753 18.402l13.008 14.3z" />
<glyph unicode="&#xe9c2;" glyph-name="user-line2" d="M819.439 228.028l-163.038 81.51c-15.377 7.697-24.934 23.159-24.934 40.363v57.702c3.908 4.779 8.021 10.223 12.271 16.23 21.146 29.867 38.093 63.113 50.415 98.97 24.081 11.042 39.714 34.85 39.714 61.73v68.267c0 16.435-6.144 32.358-17.067 44.8v90.778c0.956 9.387 4.71 65.263-35.703 111.36-35.055 39.987-91.938 60.262-169.097 60.262s-134.042-20.275-169.097-60.245c-40.414-46.097-36.659-101.99-35.703-111.377v-90.778c-10.923-12.442-17.067-28.365-17.067-44.8v-68.267c0-20.77 9.438-40.141 25.549-53.060 15.633-61.901 48.35-108.544 59.785-123.511v-56.474c0-16.521-9.011-31.676-23.501-39.595l-152.252-83.046c-49.51-27.017-80.247-78.797-80.247-135.185v-55.262c0-80.998 256.768-102.4 392.533-102.4s392.533 21.402 392.533 102.4v51.934c0 58.675-32.614 111.445-85.094 137.694zM870.4 38.4c0-23.159-126.498-68.267-358.4-68.267s-358.4 45.107-358.4 68.267v55.262c0 43.878 23.927 84.207 62.447 105.199l152.252 83.046c25.481 13.909 41.301 40.585 41.301 69.581v68.591l-3.977 4.745c-0.41 0.495-42.24 51.098-58.197 120.576l-1.553 6.758-5.82 3.755c-9.882 6.383-15.787 17.084-15.787 28.621v68.267c0 9.574 4.062 18.5 11.435 25.173l5.632 5.069v106.291l-0.154 2.236c-0.051 0.461-5.854 47.77 27.392 85.692 28.279 32.256 76.544 48.606 143.428 48.606 66.645 0 114.807-16.23 143.121-48.265 33.229-37.564 27.733-85.623 27.699-86.033l-0.154-108.527 5.632-5.086c7.373-6.656 11.435-15.582 11.435-25.156v-68.267c0-14.899-9.762-27.938-24.269-32.41l-8.499-2.611-2.731-8.448c-11.418-35.516-27.682-68.318-48.367-97.502-5.069-7.185-10.001-13.551-14.285-18.415l-4.25-4.847v-70.4c0-30.208 16.777-57.361 43.793-70.878l163.038-81.51c40.858-20.429 66.236-61.491 66.236-107.179v-51.934z" />
<glyph unicode="&#xe9c3;" glyph-name="org-profile1" d="M785.134 831.466h-18.202v18.202c0.002 60.838-49.492 110.332-110.33 110.332h-289.202c-60.838 0-110.332-49.494-110.332-110.332v-18.202h-18.202c-60.838 0-110.334-49.496-110.334-110.334v-755.132c0-16.568 13.432-30 30-30h706.934c16.568 0 30 13.432 30 30v755.132c0 60.838-49.494 110.334-110.332 110.334zM317.068 849.668c0 27.754 22.578 50.332 50.332 50.332h289.202c27.754 0 50.332-22.578 50.332-50.332v-18.202h-389.866zM560.202 128.8c27.754 0 50.332-22.58 50.332-50.334v-82.466h-68.534v132.8zM482-4h-68.534v82.466c0 27.754 22.58 50.334 50.334 50.334h18.2zM835.466-4h-164.934v82.466c0 60.838-49.494 110.334-110.332 110.334h-96.4c-60.838 0-110.334-49.496-110.334-110.334v-82.466h-164.932v725.132c0 27.754 22.58 50.334 50.334 50.334h546.268c27.754 0 50.332-22.58 50.332-50.334v-725.132zM319.2 702.942c-7.9 0-15.62-3.202-21.218-8.782-5.58-5.6-8.782-13.34-8.782-21.218 0-7.9 3.202-15.622 8.782-21.22 5.6-5.58 13.318-8.78 21.218-8.78s15.622 3.2 21.22 8.78c5.58 5.58 8.78 13.32 8.78 21.22 0 7.878-3.2 15.62-8.78 21.218-5.6 5.58-13.32 8.782-21.22 8.782zM447.74 702.942c-7.9 0-15.64-3.202-21.22-8.782-5.58-5.6-8.78-13.34-8.78-21.218 0-7.9 3.2-15.622 8.78-21.22 5.58-5.58 13.32-8.78 21.22-8.78 7.898 0 15.62 3.2 21.2 8.78 5.6 5.6 8.8 13.32 8.8 21.22 0 7.878-3.202 15.62-8.8 21.218-5.58 5.58-13.32 8.782-21.2 8.782zM319.2 574.4c-7.9 0-15.62-3.2-21.218-8.78-5.58-5.602-8.782-13.32-8.782-21.22s3.202-15.64 8.782-21.22c5.6-5.58 13.318-8.78 21.218-8.78s15.622 3.2 21.22 8.78c5.58 5.58 8.78 13.32 8.78 21.22s-3.2 15.62-8.78 21.22c-5.6 5.582-13.32 8.78-21.22 8.78zM447.74 574.4c-7.9 0-15.64-3.2-21.22-8.78-5.58-5.602-8.78-13.32-8.78-21.22s3.2-15.64 8.78-21.22 13.32-8.78 21.22-8.78c7.878 0 15.62 3.2 21.218 8.78 5.58 5.58 8.782 13.32 8.782 21.22s-3.202 15.62-8.782 21.22c-5.598 5.582-13.338 8.78-21.218 8.78zM319.2 445.862c-7.9 0-15.62-3.202-21.218-8.782-5.58-5.58-8.782-13.32-8.782-21.218 0-7.88 3.202-15.622 8.782-21.202 5.6-5.6 13.318-8.798 21.218-8.798s15.622 3.2 21.22 8.798c5.58 5.58 8.78 13.32 8.78 21.202 0 7.898-3.2 15.638-8.78 21.218-5.6 5.58-13.32 8.782-21.22 8.782zM447.74 445.862c-7.9 0-15.64-3.202-21.22-8.782s-8.78-13.32-8.78-21.218c0-7.88 3.2-15.622 8.78-21.202 5.58-5.6 13.32-8.798 21.22-8.798 7.878 0 15.62 3.2 21.218 8.798 5.58 5.58 8.782 13.32 8.782 21.202 0 7.898-3.202 15.638-8.782 21.218-5.598 5.58-13.338 8.782-21.218 8.782zM319.2 317.34c-7.9 0-15.62-3.2-21.218-8.798-5.58-5.58-8.782-13.3-8.782-21.202 0-7.898 3.202-15.638 8.782-21.218 5.6-5.58 13.318-8.782 21.218-8.782s15.64 3.202 21.22 8.782 8.78 13.32 8.78 21.218c0 7.9-3.2 15.622-8.78 21.202-5.58 5.598-13.32 8.798-21.22 8.798zM447.74 317.34c-7.9 0-15.64-3.2-21.22-8.798-5.58-5.58-8.78-13.3-8.78-21.202 0-7.898 3.2-15.638 8.78-21.218s13.32-8.782 21.22-8.782c7.898 0 15.62 3.202 21.2 8.782 5.6 5.58 8.8 13.32 8.8 21.218 0 7.9-3.202 15.622-8.8 21.202-5.58 5.598-13.302 8.798-21.2 8.798zM576.26 702.942c-7.88 0-15.622-3.202-21.2-8.782-5.58-5.6-8.782-13.32-8.782-21.218 0-7.9 3.202-15.64 8.782-21.22 5.578-5.58 13.298-8.78 21.2-8.78 7.9 0 15.64 3.2 21.22 8.78s8.78 13.32 8.78 21.22c0 7.878-3.2 15.62-8.78 21.218-5.58 5.58-13.32 8.782-21.22 8.782zM704.798 702.942c-7.898 0-15.62-3.202-21.218-8.782-5.58-5.6-8.782-13.34-8.782-21.218 0-7.9 3.202-15.64 8.782-21.22s13.32-8.78 21.218-8.78c7.9 0 15.622 3.2 21.22 8.78 5.58 5.58 8.78 13.32 8.78 21.22 0 7.898-3.2 15.62-8.78 21.218-5.598 5.58-13.318 8.782-21.22 8.782zM576.26 574.4c-7.88 0-15.622-3.2-21.2-8.78-5.602-5.602-8.8-13.32-8.8-21.22s3.2-15.64 8.8-21.22c5.578-5.58 13.318-8.78 21.2-8.78 7.9 0 15.62 3.2 21.22 8.78 5.58 5.58 8.78 13.32 8.78 21.22s-3.2 15.62-8.78 21.22c-5.6 5.582-13.32 8.78-21.22 8.78zM704.798 574.4c-7.898 0-15.62-3.2-21.218-8.78-5.58-5.602-8.782-13.32-8.782-21.22s3.202-15.62 8.782-21.22c5.6-5.58 13.32-8.78 21.218-8.78 7.9 0 15.622 3.2 21.22 8.78 5.58 5.602 8.78 13.32 8.78 21.22s-3.2 15.62-8.78 21.22c-5.598 5.582-13.318 8.78-21.22 8.78zM576.26 445.862c-7.88 0-15.622-3.202-21.2-8.782-5.58-5.58-8.782-13.32-8.782-21.218 0-7.9 3.202-15.622 8.782-21.202 5.578-5.6 13.318-8.798 21.2-8.798 7.9 0 15.64 3.2 21.22 8.798 5.58 5.58 8.78 13.32 8.78 21.202 0 7.898-3.2 15.638-8.78 21.218s-13.32 8.782-21.22 8.782zM704.798 445.862c-7.898 0-15.62-3.202-21.218-8.782-5.58-5.58-8.782-13.32-8.782-21.218 0-7.88 3.202-15.622 8.782-21.202 5.6-5.6 13.32-8.798 21.218-8.798 7.9 0 15.622 3.2 21.22 8.798 5.58 5.58 8.78 13.32 8.78 21.202 0 7.898-3.2 15.638-8.78 21.218-5.598 5.58-13.318 8.782-21.22 8.782zM576.26 317.34c-7.88 0-15.622-3.2-21.2-8.798-5.602-5.58-8.8-13.3-8.8-21.202 0-7.898 3.2-15.638 8.8-21.218 5.578-5.58 13.318-8.782 21.2-8.782 7.9 0 15.64 3.202 21.22 8.782s8.78 13.32 8.78 21.218c0 7.9-3.2 15.622-8.78 21.202-5.58 5.598-13.32 8.798-21.22 8.798zM704.798 317.34c-7.898 0-15.62-3.2-21.218-8.798-5.58-5.58-8.782-13.3-8.782-21.202 0-7.898 3.202-15.638 8.782-21.218 5.6-5.58 13.32-8.782 21.218-8.782 7.9 0 15.622 3.202 21.22 8.782 5.58 5.58 8.78 13.32 8.78 21.218 0 7.9-3.2 15.622-8.78 21.202-5.598 5.598-13.318 8.798-21.22 8.798z" />
<glyph unicode="&#xe9c4;" glyph-name="speed-loss1" d="M66.065 2.065v957.935h-66.065v-990.968c0-18.244 14.788-33.032 33.032-33.032h990.968v66.065h-957.935zM198.194 200.258h165.161v66.065h-85.554l231.226 231.226h217.683c8.78-0.052 17.22 3.396 23.453 9.579l198.194 198.194-46.906 46.906-188.284-188.614h-217.683c-8.78 0.052-17.22-3.396-23.453-9.579l-240.805-241.135v85.554h-66.065v-165.161c0-18.244 14.788-33.032 33.032-33.032z" />
<glyph unicode="&#xe9c5;" glyph-name="reports1" d="M893.504 684.288c-1.6 3.904-3.968 7.424-6.912 10.368l-255.936 255.936c-2.944 2.944-6.464 5.312-10.368 6.912-3.84 1.6-8 2.496-12.288 2.496h-416c-35.264 0-64-28.736-64-64v-896c0-35.264 28.736-64 64-64h640c35.264 0 64 28.736 64 64v672c0 4.288-0.896 8.448-2.496 12.288zM640 850.752l146.752-146.752h-146.752v146.752zM832 0h-640v896h384v-192c0-35.264 28.736-64 64-64h192v-640zM352 320c-17.664 0-32-14.336-32-32v-192c0-17.664 14.336-32 32-32s32 14.336 32 32v192c0 17.664-14.336 32-32 32zM672 576c-17.664 0-32-14.336-32-32v-448c0-17.664 14.336-32 32-32s32 14.336 32 32v448c0 17.664-14.336 32-32 32zM512 448c-17.664 0-32-14.336-32-32v-320c0-17.664 14.336-32 32-32s32 14.336 32 32v320c0 17.664-14.336 32-32 32z" />
</font>
</defs>
</svg>
